<svg xmlns="http://www.w3.org/2000/svg" viewBox="0 0 1024 1024">
<defs><linearGradient id="bgG" x1="0%" y1="0%" x2="100%" y2="100%"><stop offset="0%" stop-color="#FAF7F2"/><stop offset="100%" stop-color="#F3F0E8"/></linearGradient></defs>
<rect width="1024" height="1024" fill="url(#bgG)"/>
<circle cx="81.92" cy="81.92" r="61.44" fill="#E0F2FE" opacity="0.4"/><circle cx="942.08" cy="122.88" r="51.2" fill="#EDE9FE" opacity="0.4"/><circle cx="81.92" cy="901.12" r="71.68" fill="#FFEDD5" opacity="0.3"/><circle cx="942.08" cy="798.72" r="81.92" fill="#D1FAE5" opacity="0.3"/>

<filter id="shadow" x="-5%" y="-5%" width="110%" height="110%">
  <feDropShadow dx="0" dy="4" stdDeviation="8" flood-color="#00000010"/></filter>
<filter id="shadow2" x="-5%" y="-5%" width="110%" height="110%">
  <feDropShadow dx="0" dy="2" stdDeviation="4" flood-color="#00000008"/></filter>
<filter id="glow" x="-20%" y="-20%" width="140%" height="140%">
  <feGaussianBlur stdDeviation="12" result="blur"/>
  <feMerge><feMergeNode in="blur"/><feMergeNode in="SourceGraphic"/></feMerge></filter>
<rect x="62" y="50" width="900" height="924" rx="28" fill="#FFFFFF" filter="url(#shadow)"/>
<g transform="translate(512, 100)">
  <text x="0" y="0" text-anchor="middle" font-family="ui-sans-serif,-apple-system,sans-serif" font-size="88" font-weight="900" fill="#1E293B">大模型</text>
  <text x="0" y="100" text-anchor="middle" font-family="ui-sans-serif,-apple-system,sans-serif" font-size="80" font-weight="900" fill="#F43F5E">API 价格战</text>
</g>
<g transform="translate(512, 240)">
  <text x="0" y="0" text-anchor="middle" font-family="ui-sans-serif,-apple-system,sans-serif" font-size="26" font-weight="600" fill="#64748B">DeepSeek VS Qwen VS GPT-4o VS Claude VS Gemini</text>
  <text x="0" y="36" text-anchor="middle" font-family="ui-sans-serif,-apple-system,sans-serif" font-size="22" fill="#94A3B8">每百万Token价格 · 人民币计价</text>
</g>
<line x1="100" y1="310" x2="924" y2="310" stroke="#E2E8F0" stroke-width="1"/>
<g transform="translate(512, 350)">
  <text x="0" y="0" text-anchor="middle" font-family="ui-sans-serif,-apple-system,sans-serif" font-size="18" font-weight="700" fill="#94A3B8">模型</text>
  <text x="340" y="0" text-anchor="middle" font-family="ui-sans-serif,-apple-system,sans-serif" font-size="18" font-weight="700" fill="#94A3B8">输入 / 输出 (¥)</text>
  <text x="680" y="0" text-anchor="middle" font-family="ui-sans-serif,-apple-system,sans-serif" font-size="18" font-weight="700" fill="#94A3B8">定位</text>
</g>

<g transform="translate(80, 480)">
  <rect x="0" y="0" width="864" height="72" rx="16" fill="#FFFFFF" filter="url(#shadow2)"/>
  <g transform="translate(16, 10)"><rect x="0" y="0" width="52" height="52" rx="12" fill="#4F6EF7"/><text x="26" y="35" text-anchor="middle" font-family="ui-sans-serif,-apple-system,sans-serif" font-size="15" font-weight="900" fill="#FFF">DS</text></g>
  <text x="82" y="44" font-family="ui-sans-serif,-apple-system,sans-serif" font-size="22" font-weight="800" fill="#1E293B">DeepSeek-V4</text>
  <text x="420" y="44" font-family="ui-sans-serif,-apple-system,sans-serif" font-size="24" font-weight="900" fill="#4F6EF7">¥0.5 / ¥2</text>
  <rect x="620" y="16" width="120" height="40" rx="20" fill="#DEE3FF" stroke="#4F6EF7" stroke-width="1.5"/>
  <text x="680" y="43" text-anchor="middle" font-family="ui-sans-serif,-apple-system,sans-serif" font-size="16" font-weight="700" fill="#4F6EF7">价格屠夫</text>
</g>
<g transform="translate(80, 566)">
  <rect x="0" y="0" width="864" height="72" rx="16" fill="#FFFFFF" filter="url(#shadow2)"/>
  <g transform="translate(16, 10)"><rect x="0" y="0" width="52" height="52" rx="12" fill="#FF6A00"/><text x="26" y="35" text-anchor="middle" font-family="ui-sans-serif,-apple-system,sans-serif" font-size="14" font-weight="900" fill="#FFF">通义</text></g>
  <text x="82" y="44" font-family="ui-sans-serif,-apple-system,sans-serif" font-size="22" font-weight="800" fill="#1E293B">Qwen-Max</text>
  <text x="420" y="44" font-family="ui-sans-serif,-apple-system,sans-serif" font-size="24" font-weight="900" fill="#FF6A00">¥2 / ¥6</text>
  <rect x="620" y="16" width="120" height="40" rx="20" fill="#FFF0E0" stroke="#FF6A00" stroke-width="1.5"/>
  <text x="680" y="43" text-anchor="middle" font-family="ui-sans-serif,-apple-system,sans-serif" font-size="16" font-weight="700" fill="#FF6A00">企业首选</text>
</g>
<g transform="translate(80, 652)">
  <rect x="0" y="0" width="864" height="72" rx="16" fill="#FFFFFF" filter="url(#shadow2)"/>
  <g transform="translate(16, 10)"><rect x="0" y="0" width="52" height="52" rx="12" fill="#10A37F"/><text x="26" y="35" text-anchor="middle" font-family="ui-sans-serif,-apple-system,sans-serif" font-size="14" font-weight="900" fill="#FFF">GPT</text></g>
  <text x="82" y="44" font-family="ui-sans-serif,-apple-system,sans-serif" font-size="22" font-weight="800" fill="#1E293B">GPT-4o</text>
  <text x="420" y="44" font-family="ui-sans-serif,-apple-system,sans-serif" font-size="24" font-weight="900" fill="#10A37F">¥18 / ¥72</text>
  <rect x="620" y="16" width="120" height="40" rx="20" fill="#E0F5EF" stroke="#10A37F" stroke-width="1.5"/>
  <text x="680" y="43" text-anchor="middle" font-family="ui-sans-serif,-apple-system,sans-serif" font-size="16" font-weight="700" fill="#10A37F">多模态王者</text>
</g>
<g transform="translate(80, 738)">
  <rect x="0" y="0" width="864" height="72" rx="16" fill="#FFFFFF" filter="url(#shadow2)"/>
  <g transform="translate(16, 10)"><rect x="0" y="0" width="52" height="52" rx="12" fill="#CC4C00"/><text x="26" y="35" text-anchor="middle" font-family="ui-sans-serif,-apple-system,sans-serif" font-size="14" font-weight="900" fill="#FFF">Cl</text></g>
  <text x="82" y="44" font-family="ui-sans-serif,-apple-system,sans-serif" font-size="22" font-weight="800" fill="#1E293B">Claude 3.5</text>
  <text x="420" y="44" font-family="ui-sans-serif,-apple-system,sans-serif" font-size="24" font-weight="900" fill="#CC4C00">¥22 / ¥108</text>
  <rect x="620" y="16" width="120" height="40" rx="20" fill="#FFE4CC" stroke="#CC4C00" stroke-width="1.5"/>
  <text x="680" y="43" text-anchor="middle" font-family="ui-sans-serif,-apple-system,sans-serif" font-size="16" font-weight="700" fill="#CC4C00">长文天花板</text>
</g>
<g transform="translate(80, 824)">
  <rect x="0" y="0" width="864" height="72" rx="16" fill="#FFFFFF" filter="url(#shadow2)"/>
  <g transform="translate(16, 10)"><rect x="0" y="0" width="52" height="52" rx="12" fill="#4285F4"/><text x="26" y="35" text-anchor="middle" font-family="ui-sans-serif,-apple-system,sans-serif" font-size="14" font-weight="900" fill="#FFF">Ge</text></g>
  <text x="82" y="44" font-family="ui-sans-serif,-apple-system,sans-serif" font-size="22" font-weight="800" fill="#1E293B">Gemini 2.0</text>
  <text x="420" y="44" font-family="ui-sans-serif,-apple-system,sans-serif" font-size="24" font-weight="900" fill="#4285F4">¥9 / ¥36</text>
  <rect x="620" y="16" width="120" height="40" rx="20" fill="#E0EEFF" stroke="#4285F4" stroke-width="1.5"/>
  <text x="680" y="43" text-anchor="middle" font-family="ui-sans-serif,-apple-system,sans-serif" font-size="16" font-weight="700" fill="#4285F4">谷歌生态</text>
</g>
<g transform="translate(512, 955)">
  <text x="0" y="0" text-anchor="middle" font-family="ui-sans-serif,-apple-system,sans-serif" font-size="14" fill="#94A3B8">价格数据来源：各厂商官网 · 统一按每百万Token计算</text>
</g>

</svg>