<?xml version="1.0" encoding="UTF-8"?>
<svg width="1024" height="1365" viewBox="0 0 1024 1365" xmlns="http://www.w3.org/2000/svg">
  <defs>
  <linearGradient id="bg" x1="0%" y1="0%" x2="0%" y2="100%">
    <stop offset="0%" stop-color="#FAF7F2"/>
    <stop offset="100%" stop-color="#F0EBE0"/>
  </linearGradient>
  <linearGradient id="ab" x1="0%" y1="0%" x2="100%" y2="0%">
    <stop offset="0%" stop-color="#2563EB"/>
    <stop offset="100%" stop-color="#2563EB" stop-opacity="0.5"/>
  </linearGradient>
  <filter id="sh" x="-10%" y="-10%" width="120%" height="120%">
    <feDropShadow dx="0" dy="8" stdDeviation="18" flood-color="#000" flood-opacity="0.12"/>
  </filter>
</defs> <rect width="1024" height="1365" fill="url(#bg)"/> <circle cx="924" cy="120" r="200" fill="#2563EB" opacity="0.06"/> <circle cx="120" cy="1245" r="160" fill="#2563EB" opacity="0.05"/> <circle cx="512.0" cy="682.5" r="300" fill="#FFFFFF" opacity="0.12"/> <rect width="1024" height="8" fill="url(#ab)"/> <text x="512.0" y="145" text-anchor="middle" font-size="80" fill="#0F172A" font-family="PingFang SC, Microsoft YaHei, sans-serif" font-weight="800">AI做PPT工具</text> <text x="512.0" y="205" text-anchor="middle" font-size="36" fill="#64748B" font-family="PingFang SC, Microsoft YaHei, sans-serif" font-weight="500">四巨头横评</text> <line x1="352.0" y1="245" x2="672.0" y2="245" stroke="#2563EB" stroke-width="4" stroke-linecap="round" opacity="0.4"/> <rect x="122.0" y="280" width="360" height="210" rx="24" fill="#FFFFFF" filter="url(#sh)"/> <rect x="122.0" y="280" width="360" height="8" rx="24" fill="#3B82F6"/> <text x="157.0" y="355" font-size="44" fill="#3B82F6" font-family="Arial, sans-serif" font-weight="800">Gamma</text> <rect x="252.0" y="395" width="100" height="36" rx="18" fill="#3B82F6" opacity="0.12"/>
<text x="302.0" y="421" text-anchor="middle" font-size="20" fill="#3B82F6" font-family="PingFang SC, sans-serif" font-weight="600">全能型</text> <text x="147.0" y="455" font-size="20" fill="#94A3B8" font-family="PingFang SC, sans-serif" font-weight="400">AI生成 / 智能排版</text> <rect x="542.0" y="280" width="360" height="210" rx="24" fill="#FFFFFF" filter="url(#sh)"/> <rect x="542.0" y="280" width="360" height="8" rx="24" fill="#8B5CF6"/> <text x="577.0" y="355" font-size="44" fill="#8B5CF6" font-family="Arial, sans-serif" font-weight="800">Tome</text> <rect x="672.0" y="395" width="100" height="36" rx="18" fill="#8B5CF6" opacity="0.12"/>
<text x="722.0" y="421" text-anchor="middle" font-size="20" fill="#8B5CF6" font-family="PingFang SC, sans-serif" font-weight="600">故事感</text> <text x="567.0" y="455" font-size="20" fill="#94A3B8" font-family="PingFang SC, sans-serif" font-weight="400">AI生成 / 智能排版</text> <rect x="122.0" y="535" width="360" height="210" rx="24" fill="#FFFFFF" filter="url(#sh)"/> <rect x="122.0" y="535" width="360" height="8" rx="24" fill="#10B981"/> <text x="157.0" y="610" font-size="44" fill="#10B981" font-family="Arial, sans-serif" font-weight="800">MindShow</text> <rect x="252.0" y="650" width="100" height="36" rx="18" fill="#10B981" opacity="0.12"/>
<text x="302.0" y="676" text-anchor="middle" font-size="20" fill="#10B981" font-family="PingFang SC, sans-serif" font-weight="600">大纲转</text> <text x="147.0" y="710" font-size="20" fill="#94A3B8" font-family="PingFang SC, sans-serif" font-weight="400">AI生成 / 智能排版</text> <rect x="542.0" y="535" width="360" height="210" rx="24" fill="#FFFFFF" filter="url(#sh)"/> <rect x="542.0" y="535" width="360" height="8" rx="24" fill="#F59E0B"/> <text x="577.0" y="610" font-size="44" fill="#F59E0B" font-family="Arial, sans-serif" font-weight="800">iSlide AI</text> <rect x="672.0" y="650" width="100" height="36" rx="18" fill="#F59E0B" opacity="0.12"/>
<text x="722.0" y="676" text-anchor="middle" font-size="20" fill="#F59E0B" font-family="PingFang SC, sans-serif" font-weight="600">插件派</text> <text x="567.0" y="710" font-size="20" fill="#94A3B8" font-family="PingFang SC, sans-serif" font-weight="400">AI生成 / 智能排版</text> <text x="512.0" y="845" text-anchor="middle" font-size="24" fill="#64748B" font-family="PingFang SC, Microsoft YaHei, sans-serif" font-weight="500">一句话生成 / 设计感最强 / 大纲秒转 / 插件加速</text> <rect x="342.0" y="1286" width="340" height="48" rx="24" fill="#2563EB" opacity="0.08"/>
<text x="512.0" y="1318" text-anchor="middle" font-size="20" fill="#64748B" font-family="PingFang SC, Microsoft YaHei, sans-serif" font-weight="500">#AI工具 #PPT #效率提升</text>
</svg>