<svg xmlns="http://www.w3.org/2000/svg" width="1792" height="1024" viewBox="0 0 1792 1024">
  <defs>
    <radialGradient id="bg" cx="50%" cy="50%" r="70%">
      <stop offset="0%" style="stop-color:#111827"/>
      <stop offset="100%" style="stop-color:#0B1027"/>
    </radialGradient>
  </defs>
  <rect width="1792" height="1024" fill="url(#bg)"/>
  <rect x="0" y="0" width="1792" height="6" fill="#F59E0B"/>
  <text x="100" y="140" font-family="Inter, sans-serif" font-size="28" fill="#94A3B8">02</text>
  <text x="100" y="200" font-family="Inter, sans-serif" font-size="56" font-weight="bold" fill="#FFFFFF">Three Powers of</text>
  <text x="100" y="270" font-family="Inter, sans-serif" font-size="56" font-weight="bold" fill="#F59E0B">Going Slow</text>
  <line x1="100" y1="320" x2="420" y2="320" stroke="#F59E0B" stroke-width="4" stroke-linecap="round"/>
  <rect x="100" y="370" width="1592" height="110" rx="16" fill="#1E293B"/>
  <circle cx="140" cy="425" r="10" fill="#F59E0B"/>
  <text x="175" y="405" font-family="Inter, sans-serif" font-size="34" font-weight="bold" fill="#FFFFFF">Noise Filter</text>
  <text x="175" y="445" font-family="Inter, sans-serif" font-size="26" fill="#94A3B8">Automatically skip 90% of useless information</text>
  <rect x="100" y="500" width="1592" height="110" rx="16" fill="#1E293B"/>
  <circle cx="140" cy="555" r="10" fill="#F59E0B"/>
  <text x="175" y="535" font-family="Inter, sans-serif" font-size="34" font-weight="bold" fill="#FFFFFF">Depth Advantage</text>
  <text x="175" y="575" font-family="Inter, sans-serif" font-size="26" fill="#94A3B8">10 masterpieces with 1 tool > 10 dabbles with 20 tools</text>
  <rect x="100" y="630" width="1592" height="110" rx="16" fill="#1E293B"/>
  <circle cx="140" cy="685" r="10" fill="#F59E0B"/>
  <text x="175" y="665" font-family="Inter, sans-serif" font-size="34" font-weight="bold" fill="#FFFFFF">Timeless Skills</text>
  <text x="175" y="705" font-family="Inter, sans-serif" font-size="26" fill="#94A3B8">Prompt engineering · Data thinking · Problem decomposition</text>
  <text x="100" y="880" font-family="Inter, sans-serif" font-size="28" fill="#F59E0B">Fast people chase trends. Slow people see what matters.</text>
  <text x="1732" y="974" font-family="Inter, sans-serif" font-size="22" fill="#94A3B8" text-anchor="end">3/4</text>
</svg>