<svg xmlns="http://www.w3.org/2000/svg" viewBox="0 0 1792 1024">
<defs><linearGradient id="bgG" x1="0%" y1="0%" x2="100%" y2="100%"><stop offset="0%" stop-color="#FAF7F2"/><stop offset="100%" stop-color="#F3F0E8"/></linearGradient></defs>
<rect width="1792" height="1024" fill="url(#bgG)"/><circle cx="143.36" cy="81.92" r="60" fill="#E0F2FE" opacity="0.4"/><circle cx="1648.64" cy="122.88" r="50" fill="#EDE9FE" opacity="0.4"/><circle cx="143.36" cy="901.12" r="70" fill="#DBEAFE" opacity="0.3"/><circle cx="1648.64" cy="798.72" r="80" fill="#FFEDD5" opacity="0.3"/>

<text x="896" y="220" text-anchor="middle" font-family="ui-sans-serif,-apple-system,sans-serif" font-size="140" font-weight="900" fill="#1E293B" letter-spacing="-6">Ollama</text>
<text x="896" y="400" text-anchor="middle" font-family="ui-sans-serif,-apple-system,sans-serif" font-size="160" font-weight="900" fill="#0EA5E9" letter-spacing="-6">Mac 本地跑大模型</text>

<g transform="translate(446, 480)">
  <rect x="0" y="0" width="900" height="70" rx="35" fill="#D1FAE5" stroke="#10B981" stroke-width="2"/>
  <text x="450" y="44" text-anchor="middle" font-family="ui-sans-serif,-apple-system,sans-serif" font-size="28" font-weight="800" fill="#10B981">brew install ollama ← 就这么简单</text>
</g>

<text x="896" y="640" text-anchor="middle" font-family="ui-sans-serif,-apple-system,sans-serif" font-size="26" fill="#64748B">Apple Metal GPU 加速 · 100+ 模型 · REST API · Open WebUI</text>

<g transform="translate(200, 730)">
  <rect x="0" y="0" width="230" height="48" rx="24" fill="#E0F2FE"/><text x="115" y="31" text-anchor="middle" font-family="ui-sans-serif,-apple-system,sans-serif" font-size="18" font-weight="600" fill="#0EA5E9">M1-M4 全系支持</text>
  <rect x="270" y="0" width="230" height="48" rx="24" fill="#DBEAFE"/><text x="385" y="31" text-anchor="middle" font-family="ui-sans-serif,-apple-system,sans-serif" font-size="18" font-weight="600" fill="#3B82F6">离线隐私</text>
  <rect x="540" y="0" width="230" height="48" rx="24" fill="#EDE9FE"/><text x="655" y="31" text-anchor="middle" font-family="ui-sans-serif,-apple-system,sans-serif" font-size="18" font-weight="600" fill="#8B5CF6">零成本</text>
  <rect x="810" y="0" width="230" height="48" rx="24" fill="#FFEDD5"/><text x="925" y="31" text-anchor="middle" font-family="ui-sans-serif,-apple-system,sans-serif" font-size="18" font-weight="600" fill="#F97316">开发者友好</text>
  <rect x="1080" y="0" width="230" height="48" rx="24" fill="#D1FAE5"/><text x="1195" y="31" text-anchor="middle" font-family="ui-sans-serif,-apple-system,sans-serif" font-size="18" font-weight="600" fill="#10B981">95K+ Stars</text>
</g>

<text x="896" y="960" text-anchor="middle" font-family="ui-monospace,monospace" font-size="18" fill="#94A3B8">ollama.com · GitHub · MIT 开源</text>

</svg>