<svg xmlns="http://www.w3.org/2000/svg" viewBox="0 0 1024 1024" width="1024" height="1024">
  <defs>
    <radialGradient id="bg" cx="50%" cy="40%" r="70%">
      <stop offset="0%" stop-color="#FAF7F2"/>
      <stop offset="100%" stop-color="#F0EAE0"/>
    </radialGradient>
    <linearGradient id="title" x1="0%" y1="0%" x2="100%" y2="0%">
      <stop offset="0%" stop-color="#2563EB"/>
      <stop offset="50%" stop-color="#7C3AED"/>
      <stop offset="100%" stop-color="#EC4899"/>
    </linearGradient>
    <filter id="shadow" x="-5%" y="-5%" width="110%" height="110%">
      <feDropShadow dx="0" dy="6" stdDeviation="16" flood-color="#1E293B" flood-opacity="0.10"/>
    </filter>
  </defs>
  <rect width="1024" height="1024" fill="url(#bg)"/>

  <circle cx="150" cy="150" r="120" fill="#DBEAFE" opacity="0.4"/>
  <circle cx="850" cy="200" r="90" fill="#EDE9FE" opacity="0.4"/>
  <circle cx="200" cy="850" r="100" fill="#FCE7F3" opacity="0.3"/>
  <circle cx="880" cy="800" r="80" fill="#DBEAFE" opacity="0.3"/>

  <rect x="62" y="50" width="900" height="220" rx="40" fill="#FFFFFF" filter="url(#shadow)"/>
  <text x="512" y="105" text-anchor="middle" font-family="ui-sans-serif, -apple-system, sans-serif" font-size="32" font-weight="700" fill="#2563EB">🎯 免费 · 高效 · 随时练</text>
  <text x="512" y="210" text-anchor="middle" font-family="ui-sans-serif, -apple-system, sans-serif" font-size="80" font-weight="900" fill="url(#title)">AI 模拟面试官</text>

  <rect x="162" y="300" width="700" height="90" rx="25" fill="#FFFFFF" filter="url(#shadow)"/>
  <text x="512" y="358" text-anchor="middle" font-family="ui-sans-serif, -apple-system, sans-serif" font-size="38" font-weight="800" fill="#1E293B">用 LLM 零成本模拟面试</text>

  <g transform="translate(162, 430)">
    <rect x="0" y="0" width="700" height="500" rx="30" fill="#FFFFFF" filter="url(#shadow)"/>
    <text x="350" y="60" text-anchor="middle" font-family="ui-sans-serif, -apple-system, sans-serif" font-size="26" font-weight="700" fill="#1E293B">📋 为啥你一定要试</text>
    <line x1="60" y1="85" x2="640" y2="85" stroke="#E2E8F0" stroke-width="2"/>

    <g transform="translate(40, 115)">
      <rect x="0" y="0" width="140" height="56" rx="28" fill="#D1FAE5"/>
      <text x="70" y="36" text-anchor="middle" font-family="ui-sans-serif, -apple-system, sans-serif" font-size="26" font-weight="800" fill="#059669">完全免费</text>
      <text x="165" y="36" font-family="ui-sans-serif, -apple-system, sans-serif" font-size="26" fill="#1E293B">有 LLM 就能练</text>
    </g>
    <g transform="translate(40, 195)">
      <rect x="0" y="0" width="140" height="56" rx="28" fill="#DBEAFE"/>
      <text x="70" y="36" text-anchor="middle" font-family="ui-sans-serif, -apple-system, sans-serif" font-size="26" font-weight="800" fill="#2563EB">随时开练</text>
      <text x="165" y="36" font-family="ui-sans-serif, -apple-system, sans-serif" font-size="26" fill="#1E293B">24 小时随叫随到</text>
    </g>
    <g transform="translate(40, 275)">
      <rect x="0" y="0" width="140" height="56" rx="28" fill="#EDE9FE"/>
      <text x="70" y="36" text-anchor="middle" font-family="ui-sans-serif, -apple-system, sans-serif" font-size="26" font-weight="800" fill="#7C3AED">真实反馈</text>
      <text x="165" y="36" font-family="ui-sans-serif, -apple-system, sans-serif" font-size="26" fill="#1E293B">AI 会追问 &amp; 深度复盘</text>
    </g>
    <g transform="translate(40, 355)">
      <rect x="0" y="0" width="140" height="56" rx="28" fill="#FCE7F3"/>
      <text x="70" y="36" text-anchor="middle" font-family="ui-sans-serif, -apple-system, sans-serif" font-size="26" font-weight="800" fill="#EC4899">定制化</text>
      <text x="165" y="36" font-family="ui-sans-serif, -apple-system, sans-serif" font-size="26" fill="#1E293B">贴 JD 就能针对性出题</text>
    </g>

    <text x="350" y="450" text-anchor="middle" font-family="ui-sans-serif, -apple-system, sans-serif" font-size="24" fill="#1E293B">🚀 别再裸面上战场了</text>
  </g>

  <text x="512" y="980" text-anchor="middle" font-family="ui-sans-serif, -apple-system, sans-serif" font-size="24" font-weight="700" fill="#2563EB">#AI面试模拟 #用LLM做模拟面试官</text>
</svg>