<svg xmlns="http://www.w3.org/2000/svg" viewBox="0 0 1792 1024">
<defs><linearGradient id="bgG" x1="0%" y1="0%" x2="100%" y2="100%"><stop offset="0%" stop-color="#FAF7F2"/><stop offset="100%" stop-color="#F3F0E8"/></linearGradient></defs>
<rect width="1792" height="1024" fill="url(#bgG)"/><circle cx="143.36" cy="81.92" r="60" fill="#E8EEFF" opacity="0.5"/><circle cx="1648.64" cy="122.88" r="50" fill="#EDE9FE" opacity="0.4"/><circle cx="143.36" cy="901.12" r="70" fill="#E0F2FE" opacity="0.3"/><circle cx="1648.64" cy="798.72" r="80" fill="#FFEDD5" opacity="0.3"/>

<text x="896" y="280" text-anchor="middle" font-family="ui-sans-serif,-apple-system,sans-serif" font-size="60" font-weight="400" fill="#64748B" letter-spacing="3">飞书</text>
<text x="896" y="460" text-anchor="middle" font-family="ui-sans-serif,-apple-system,sans-serif" font-size="200" font-weight="900" fill="#3370FF" letter-spacing="-6">CLI</text>
<text x="896" y="560" text-anchor="middle" font-family="ui-sans-serif,-apple-system,sans-serif" font-size="34" fill="#64748B">一行命令管理全部飞书 API · 开发者效率神器</text>

<g transform="translate(396, 640)">
  <rect x="0" y="0" width="1000" height="80" rx="40" fill="#FFFFFF" stroke="#3370FF" stroke-width="2"/>
  <text x="500" y="50" text-anchor="middle" font-family="ui-sans-serif,-apple-system,sans-serif" font-size="30" font-weight="700" fill="#3370FF">npm i -g @larksuiteo/cli · 开箱即用</text>
</g>

<g transform="translate(200, 780)">
  <rect x="0" y="0" width="200" height="48" rx="24" fill="#E8EEFF"/><text x="100" y="32" text-anchor="middle" font-family="ui-sans-serif,-apple-system,sans-serif" font-size="19" font-weight="600" fill="#3370FF">日历会议</text>
  <rect x="230" y="0" width="200" height="48" rx="24" fill="#E0F2FE"/><text x="330" y="32" text-anchor="middle" font-family="ui-sans-serif,-apple-system,sans-serif" font-size="19" font-weight="600" fill="#0EA5E9">即时通讯</text>
  <rect x="460" y="0" width="200" height="48" rx="24" fill="#EDE9FE"/><text x="560" y="32" text-anchor="middle" font-family="ui-sans-serif,-apple-system,sans-serif" font-size="19" font-weight="600" fill="#8B5CF6">云文档</text>
  <rect x="690" y="0" width="200" height="48" rx="24" fill="#FFEDD5"/><text x="790" y="32" text-anchor="middle" font-family="ui-sans-serif,-apple-system,sans-serif" font-size="19" font-weight="600" fill="#F97316">多维表格</text>
  <rect x="920" y="0" width="200" height="48" rx="24" fill="#D1FAE5"/><text x="1020" y="32" text-anchor="middle" font-family="ui-sans-serif,-apple-system,sans-serif" font-size="19" font-weight="600" fill="#10B981">邮箱</text>
  <rect x="1150" y="0" width="200" height="48" rx="24" fill="#E8EEFF"/><text x="1250" y="32" text-anchor="middle" font-family="ui-sans-serif,-apple-system,sans-serif" font-size="19" font-weight="600" fill="#3370FF">通讯录</text>
  <rect x="1380" y="0" width="200" height="48" rx="24" fill="#E0F2FE"/><text x="1480" y="32" text-anchor="middle" font-family="ui-sans-serif,-apple-system,sans-serif" font-size="19" font-weight="600" fill="#0EA5E9">审批考勤</text>
</g>

<text x="896" y="960" text-anchor="middle" font-family="ui-monospace,monospace" font-size="18" fill="#94A3B8">github.com/larksuite/cli · Apache-2.0 开源 · 20+ Agent Skills</text>

</svg>