<svg xmlns="http://www.w3.org/2000/svg" viewBox="0 0 1024 1024">
<defs><linearGradient id="bgG" x1="0%" y1="0%" x2="100%" y2="100%"><stop offset="0%" stop-color="#FAF7F2"/><stop offset="100%" stop-color="#F3F0E8"/></linearGradient></defs>
<rect width="1024" height="1024" fill="url(#bgG)"/><circle cx="81.92" cy="81.92" r="60" fill="#E8EEFF" opacity="0.5"/><circle cx="942.08" cy="122.88" r="50" fill="#EDE9FE" opacity="0.4"/><circle cx="81.92" cy="901.12" r="70" fill="#E0F2FE" opacity="0.3"/><circle cx="942.08" cy="798.72" r="80" fill="#FFEDD5" opacity="0.3"/>

<text x="512" y="260" text-anchor="middle" font-family="ui-sans-serif,-apple-system,sans-serif" font-size="48" font-weight="400" fill="#64748B" letter-spacing="2">飞书</text>
<text x="512" y="390" text-anchor="middle" font-family="ui-sans-serif,-apple-system,sans-serif" font-size="160" font-weight="900" fill="#3370FF" letter-spacing="-5">CLI</text>
<text x="512" y="470" text-anchor="middle" font-family="ui-sans-serif,-apple-system,sans-serif" font-size="28" fill="#64748B">一行命令管所有 · 开发者效率神器</text>
<g transform="translate(162, 560)">
  <rect x="0" y="0" width="700" height="80" rx="40" fill="#FFFFFF" stroke="#3370FF" stroke-width="2"/>
  <text x="350" y="50" text-anchor="middle" font-family="ui-sans-serif,-apple-system,sans-serif" font-size="28" font-weight="700" fill="#3370FF">npm i -g @larksuiteo/cli</text>
</g>
<rect x="162" y="720" width="100" height="40" rx="20" fill="#E8EEFF"/><text x="212" y="746" text-anchor="middle" font-family="ui-sans-serif,-apple-system,sans-serif" font-size="18" font-weight="600" fill="#3370FF">日历</text><rect x="282" y="720" width="100" height="40" rx="20" fill="#E0F2FE"/><text x="332" y="746" text-anchor="middle" font-family="ui-sans-serif,-apple-system,sans-serif" font-size="18" font-weight="600" fill="#0EA5E9">消息</text><rect x="402" y="720" width="100" height="40" rx="20" fill="#EDE9FE"/><text x="452" y="746" text-anchor="middle" font-family="ui-sans-serif,-apple-system,sans-serif" font-size="18" font-weight="600" fill="#8B5CF6">文档</text><rect x="522" y="720" width="100" height="40" rx="20" fill="#FFEDD5"/><text x="572" y="746" text-anchor="middle" font-family="ui-sans-serif,-apple-system,sans-serif" font-size="18" font-weight="600" fill="#F97316">表格</text><rect x="642" y="720" width="100" height="40" rx="20" fill="#D1FAE5"/><text x="692" y="746" text-anchor="middle" font-family="ui-sans-serif,-apple-system,sans-serif" font-size="18" font-weight="600" fill="#10B981">邮箱</text><rect x="762" y="720" width="100" height="40" rx="20" fill="#E8EEFF"/><text x="812" y="746" text-anchor="middle" font-family="ui-sans-serif,-apple-system,sans-serif" font-size="18" font-weight="600" fill="#3370FF">通讯录</text>
<text x="512" y="850" text-anchor="middle" font-family="ui-sans-serif,-apple-system,sans-serif" font-size="17" fill="#94A3B8">日历 · 消息 · 文档 · 表格 · 邮箱 · 通讯录 · 审批 · 考勤</text>
<text x="512" y="960" text-anchor="middle" font-family="ui-monospace,monospace" font-size="16" fill="#94A3B8">github.com/larksuite/cli</text>
</svg>