<svg xmlns="http://www.w3.org/2000/svg" width="1080" height="1080" viewBox="0 0 1080 1080">
<defs><linearGradient id="bg" x1="0" y1="0" x2="1" y2="1"><stop offset="0%" stop-color="#FAF7F2"/><stop offset="100%" stop-color="#F5F0E8"/></linearGradient><linearGradient id="bg-dark" x1="0" y1="0" x2="1" y2="1"><stop offset="0%" stop-color="#0B1027"/><stop offset="100%" stop-color="#151B3D"/></linearGradient></defs>
<rect width="1080" height="1080" fill="url(#bg)"/>
<rect x="0" y="0" width="1080" height="8" fill="#002FA7"/>
<!-- Decorative horizontal lines -->
<g opacity="0.05">
<rect x="120" y="100" width="300" height="2" fill="#1E293B"/><rect x="120" y="130" width="240" height="2" fill="#1E293B"/>
<rect x="120" y="160" width="200" height="2" fill="#1E293B"/>
<rect x="660" y="840" width="300" height="2" fill="#1E293B"/><rect x="660" y="870" width="240" height="2" fill="#1E293B"/>
<rect x="660" y="900" width="200" height="2" fill="#1E293B"/>
</g>
<rect x="760" y="80" width="260" height="4" fill="#002FA7" opacity="0.2"/>
<!-- Role badge -->
<rect x="420" y="120" width="240" height="48" rx="24" fill="#002FA7" opacity="0.10"/>
<text x="540" y="152" text-anchor="middle" font-family="STHeitiTC-Medium,sans-serif" font-size="26" fill="#002FA7" letter-spacing="4">ROLE 03</text>
<!-- Main title -->
<text x="540" y="400" text-anchor="middle" font-family="STHeitiTC-Medium,Heiti TC,PingFang SC,sans-serif" font-size="120" font-weight="700" fill="#1E293B">文档撰写员</text>
<text x="540" y="540" text-anchor="middle" font-family="STHeitiTC-Medium,Heiti TC,PingFang SC,sans-serif" font-size="100" font-weight="500" fill="#002FA7">注释自动生成</text>
<rect x="340" y="590" width="400" height="3" fill="#002FA7" opacity="0.25"/>
<!-- Description -->
<text x="540" y="680" text-anchor="middle" font-family="STHeitiTC-Medium,Heiti TC,PingFang SC,sans-serif" font-size="36" fill="#64748B">自动生成注释 · 告别写文档</text>
<text x="540" y="730" text-anchor="middle" font-family="STHeitiTC-Medium,Heiti TC,PingFang SC,sans-serif" font-size="30" fill="#94A3B8">API 文档覆盖率自动 100%</text>
</svg>