<svg xmlns="http://www.w3.org/2000/svg" viewBox="0 0 1024 1024">
<defs><linearGradient id="bgG" x1="0%" y1="0%" x2="100%" y2="100%"><stop offset="0%" stop-color="#FAF7F2"/><stop offset="100%" stop-color="#F3F0E8"/></linearGradient></defs>
<rect width="1024" height="1024" fill="url(#bgG)"/><circle cx="81.92" cy="81.92" r="60" fill="#E0F2FE" opacity="0.4"/><circle cx="942.08" cy="122.88" r="50" fill="#EDE9FE" opacity="0.4"/><circle cx="81.92" cy="901.12" r="70" fill="#DBEAFE" opacity="0.3"/><circle cx="942.08" cy="798.72" r="80" fill="#FFEDD5" opacity="0.3"/>

<text x="512" y="90" text-anchor="middle" font-family="ui-sans-serif,-apple-system,sans-serif" font-size="38" font-weight="800" fill="#1E293B">修复与稳定性</text>
<text x="512" y="130" text-anchor="middle" font-family="ui-sans-serif,-apple-system,sans-serif" font-size="22" fill="#64748B">23 commits · 62 files · 尽在 v3.16.1</text>

<g transform="translate(62, 180)">
  <rect x="0" y="0" width="900" height="130" rx="16" fill="#FFFFFF" stroke="#0EA5E9" stroke-width="1.5"/>
  <text x="30" y="40" font-family="ui-sans-serif,-apple-system,sans-serif" font-size="24" font-weight="700" fill="#0EA5E9">Codex 模型目录</text>
  <text x="30" y="80" font-family="ui-sans-serif,-apple-system,sans-serif" font-size="18" fill="#64748B">不再被静默清空 · 以数据库为真相来源，live 回填/切换/恢复不丢</text>
</g>
<g transform="translate(62, 330)">
  <rect x="0" y="0" width="900" height="130" rx="16" fill="#FFFFFF" stroke="#3B82F6" stroke-width="1.5"/>
  <text x="30" y="40" font-family="ui-sans-serif,-apple-system,sans-serif" font-size="24" font-weight="700" fill="#3B82F6">Chat 工具/插件路由</text>
  <text x="30" y="80" font-family="ui-sans-serif,-apple-system,sans-serif" font-size="18" fill="#64748B">tool_search / 自定义工具完整恢复 · 流式输出原生事件</text>
</g>
<g transform="translate(62, 480)">
  <rect x="0" y="0" width="900" height="130" rx="16" fill="#FFFFFF" stroke="#8B5CF6" stroke-width="1.5"/>
  <text x="30" y="40" font-family="ui-sans-serif,-apple-system,sans-serif" font-size="24" font-weight="700" fill="#8B5CF6">热切换更稳</text>
  <text x="30" y="80" font-family="ui-sans-serif,-apple-system,sans-serif" font-size="18" fill="#64748B">串行锁定 + PROXY_MANAGED 占位符 · 防止配置被覆盖</text>
</g>
<g transform="translate(62, 630)">
  <rect x="0" y="0" width="900" height="130" rx="16" fill="#FFFFFF" stroke="#10B981" stroke-width="1.5"/>
  <text x="30" y="40" font-family="ui-sans-serif,-apple-system,sans-serif" font-size="24" font-weight="700" fill="#10B981">Claude Desktop 修复</text>
  <text x="30" y="80" font-family="ui-sans-serif,-apple-system,sans-serif" font-size="18" fill="#64748B">官方供应商添加不再报错</text>
</g>

</svg>