<svg xmlns="http://www.w3.org/2000/svg" viewBox="0 0 1024 1024">
<defs><linearGradient id="bgG" x1="0%" y1="0%" x2="100%" y2="100%"><stop offset="0%" stop-color="#FAF7F2"/><stop offset="100%" stop-color="#F3F0E8"/></linearGradient></defs>
<rect width="1024" height="1024" fill="url(#bgG)"/><circle cx="81.92" cy="81.92" r="60" fill="#E0F2FE" opacity="0.4"/><circle cx="942.08" cy="122.88" r="50" fill="#EDE9FE" opacity="0.4"/><circle cx="81.92" cy="901.12" r="70" fill="#DBEAFE" opacity="0.3"/><circle cx="942.08" cy="798.72" r="80" fill="#FFEDD5" opacity="0.3"/>

<text x="512" y="200" text-anchor="middle" font-family="ui-sans-serif,-apple-system,sans-serif" font-size="120" font-weight="900" fill="#1E293B" letter-spacing="-4">CC</text>
<text x="512" y="340" text-anchor="middle" font-family="ui-sans-serif,-apple-system,sans-serif" font-size="140" font-weight="900" fill="#0EA5E9" letter-spacing="-5">Switch</text>

<g transform="translate(162, 420)">
  <rect x="0" y="0" width="700" height="80" rx="40" fill="#FEE2E2" stroke="#EF4444" stroke-width="2"/>
  <text x="350" y="50" text-anchor="middle" font-family="ui-sans-serif,-apple-system,sans-serif" font-size="32" font-weight="800" fill="#EF4444">v3.16.1 史诗级更新</text>
</g>

<text x="512" y="580" text-anchor="middle" font-family="ui-sans-serif,-apple-system,sans-serif" font-size="28" font-weight="700" fill="#1E293B">Codex OAuth 保留 🔑</text>
<text x="512" y="620" text-anchor="middle" font-family="ui-sans-serif,-apple-system,sans-serif" font-size="22" fill="#64748B">第三方 API + 官方登录同时用</text>

<g transform="translate(120, 700)">
  <rect x="0" y="0" width="200" height="44" rx="22" fill="#E0F2FE"/><text x="100" y="29" text-anchor="middle" font-family="ui-sans-serif,-apple-system,sans-serif" font-size="17" font-weight="600" fill="#0EA5E9">Chat 路由修复</text>
  <rect x="220" y="0" width="200" height="44" rx="22" fill="#DBEAFE"/><text x="320" y="29" text-anchor="middle" font-family="ui-sans-serif,-apple-system,sans-serif" font-size="17" font-weight="600" fill="#3B82F6">模型目录加固</text>
  <rect x="440" y="0" width="200" height="44" rx="22" fill="#EDE9FE"/><text x="540" y="29" text-anchor="middle" font-family="ui-sans-serif,-apple-system,sans-serif" font-size="17" font-weight="600" fill="#8B5CF6">热切换稳定</text>
  <rect x="660" y="0" width="200" height="44" rx="22" fill="#D1FAE5"/><text x="760" y="29" text-anchor="middle" font-family="ui-sans-serif,-apple-system,sans-serif" font-size="17" font-weight="600" fill="#10B981">23 commits</text>
</g>

<text x="512" y="960" text-anchor="middle" font-family="ui-monospace,monospace" font-size="16" fill="#94A3B8">brew install --cask cc-switch</text>
</svg>