<svg xmlns="http://www.w3.org/2000/svg" viewBox="0 0 1024 1024">
<defs><linearGradient id="bgG" x1="0%" y1="0%" x2="100%" y2="100%"><stop offset="0%" stop-color="#FAF7F2"/><stop offset="100%" stop-color="#F3F0E8"/></linearGradient></defs>
<rect width="1024" height="1024" fill="url(#bgG)"/><circle cx="81.92" cy="81.92" r="60" fill="#E0F2FE" opacity="0.4"/><circle cx="942.08" cy="122.88" r="50" fill="#EDE9FE" opacity="0.4"/><circle cx="81.92" cy="901.12" r="70" fill="#DBEAFE" opacity="0.3"/><circle cx="942.08" cy="798.72" r="80" fill="#FFEDD5" opacity="0.3"/>

<text x="512" y="80" text-anchor="middle" font-family="ui-sans-serif,-apple-system,sans-serif" font-size="38" font-weight="800" fill="#1E293B">更多修复 & 支持</text>

<g transform="translate(62, 160)">
  <rect x="0" y="0" width="900" height="90" rx="14" fill="#FFEDD5"/>
  <text x="30" y="36" font-family="ui-sans-serif,-apple-system,sans-serif" font-size="22" font-weight="600" fill="#1E293B">Kimi / Moonshot 工具思考历史</text>
  <text x="30" y="66" font-family="ui-sans-serif,-apple-system,sans-serif" font-size="17" fill="#64748B">正确重放 reasoning 与 tool-call 上下文</text>
  <rect x="850" y="28" width="28" height="32" rx="6" fill="#F97316" opacity="0.2"/>
</g>
<g transform="translate(62, 280)">
  <rect x="0" y="0" width="900" height="90" rx="14" fill="#EDE9FE"/>
  <text x="30" y="36" font-family="ui-sans-serif,-apple-system,sans-serif" font-size="22" font-weight="600" fill="#1E293B">Windows 版本探测修复</text>
  <text x="30" y="66" font-family="ui-sans-serif,-apple-system,sans-serif" font-size="17" fill="#64748B">乱码与误判修复，不再显示"已安装但无法运行"</text>
  <rect x="850" y="28" width="28" height="32" rx="6" fill="#8B5CF6" opacity="0.2"/>
</g>
<g transform="translate(62, 400)">
  <rect x="0" y="0" width="900" height="90" rx="14" fill="#E0F2FE"/>
  <text x="30" y="36" font-family="ui-sans-serif,-apple-system,sans-serif" font-size="22" font-weight="600" fill="#1E293B">余额 / Coding Plan 查询</text>
  <text x="30" y="66" font-family="ui-sans-serif,-apple-system,sans-serif" font-size="17" fill="#64748B">按 app 解析凭据，不再跨应用错用</text>
  <rect x="850" y="28" width="28" height="32" rx="6" fill="#0EA5E9" opacity="0.2"/>
</g>
<g transform="translate(62, 520)">
  <rect x="0" y="0" width="900" height="90" rx="14" fill="#DBEAFE"/>
  <text x="30" y="36" font-family="ui-sans-serif,-apple-system,sans-serif" font-size="22" font-weight="600" fill="#1E293B">Codex CLI 发现与模板兜底</text>
  <text x="30" y="66" font-family="ui-sans-serif,-apple-system,sans-serif" font-size="17" fill="#64748B">多平台安装位置 + GPT-5.5 模型兜底</text>
  <rect x="850" y="28" width="28" height="32" rx="6" fill="#3B82F6" opacity="0.2"/>
</g>
<g transform="translate(62, 640)">
  <rect x="0" y="0" width="900" height="90" rx="14" fill="#D1FAE5"/>
  <text x="30" y="36" font-family="ui-sans-serif,-apple-system,sans-serif" font-size="22" font-weight="600" fill="#1E293B">诊断错误更完整</text>
  <text x="30" y="66" font-family="ui-sans-serif,-apple-system,sans-serif" font-size="17" fill="#64748B">返回含 provider/model/endpoint/错误码的 JSON</text>
  <rect x="850" y="28" width="28" height="32" rx="6" fill="#10B981" opacity="0.2"/>
</g>
<text x="512" y="960" text-anchor="middle" font-family="ui-sans-serif,-apple-system,sans-serif" font-size="16" fill="#94A3B8">7 个工具统一管理 · MIT 开源 · brew install --cask cc-switch</text>

</svg>