<svg xmlns="http://www.w3.org/2000/svg" viewBox="0 0 1792 1024">
<defs><linearGradient id="bgG" x1="0%" y1="0%" x2="100%" y2="100%"><stop offset="0%" stop-color="#FAF7F2"/><stop offset="100%" stop-color="#F3F0E8"/></linearGradient></defs>
<rect width="1792" height="1024" fill="url(#bgG)"/><circle cx="143.36" cy="81.92" r="61.44" fill="#E0F2FE" opacity="0.4"/><circle cx="1648.64" cy="122.88" r="51.2" fill="#EDE9FE" opacity="0.4"/><circle cx="143.36" cy="901.12" r="71.68" fill="#FFEDD5" opacity="0.3"/><circle cx="1648.64" cy="798.72" r="81.92" fill="#D1FAE5" opacity="0.3"/>

<filter id="shadow" x="-5%" y="-5%" width="110%" height="110%">
  <feDropShadow dx="0" dy="4" stdDeviation="8" flood-color="#00000010"/>
</filter>
<filter id="shadow2" x="-5%" y="-5%" width="110%" height="110%">
  <feDropShadow dx="0" dy="2" stdDeviation="4" flood-color="#00000008"/>
</filter>
<rect x="140" y="60" width="1512" height="860" rx="28" fill="#FFFFFF" filter="url(#shadow)"/>
<text x="896" y="140" text-anchor="middle" font-family="ui-sans-serif,-apple-system,sans-serif" font-size="60" font-weight="900" fill="#1E293B">AI 饭量大比拼 🍚</text>

<g transform="translate(140, 180)">
  <rect x="0" y="0" width="1512" height="72" rx="16" fill="#FFF0F0"/>
  <text x="50" y="47" font-family="ui-sans-serif,-apple-system,sans-serif" font-size="28" fill="#1E293B">🥇</text>
  <text x="140" y="47" font-family="ui-sans-serif,-apple-system,sans-serif" font-size="26" font-weight="700" fill="#1E293B">豆包</text>
  <text x="400" y="47" font-family="ui-sans-serif,-apple-system,sans-serif" font-size="24" fill="#FF6B6B" font-weight="600">3 碗</text>
  <rect x="700" y="16" width="120" height="40" rx="20" fill="#FF6B6B" opacity="0.15"/>
  <text x="760" y="43" text-anchor="middle" font-family="ui-sans-serif,-apple-system,sans-serif" font-size="17" font-weight="600" fill="#FF6B6B">接地气</text>
</g>
<g transform="translate(140, 280)">
  <rect x="0" y="0" width="1512" height="72" rx="16" fill="#E6F7F1"/>
  <text x="50" y="47" font-family="ui-sans-serif,-apple-system,sans-serif" font-size="28" fill="#1E293B">🥈</text>
  <text x="140" y="47" font-family="ui-sans-serif,-apple-system,sans-serif" font-size="26" font-weight="700" fill="#1E293B">ChatGPT</text>
  <text x="400" y="47" font-family="ui-sans-serif,-apple-system,sans-serif" font-size="24" fill="#10A37F" font-weight="600">1000 碗(信息量)</text>
  <rect x="700" y="16" width="120" height="40" rx="20" fill="#10A37F" opacity="0.15"/>
  <text x="760" y="43" text-anchor="middle" font-family="ui-sans-serif,-apple-system,sans-serif" font-size="17" font-weight="600" fill="#10A37F">官方得体</text>
</g>
<g transform="translate(140, 380)">
  <rect x="0" y="0" width="1512" height="72" rx="16" fill="#EDE9FE"/>
  <text x="50" y="47" font-family="ui-sans-serif,-apple-system,sans-serif" font-size="28" fill="#1E293B">🥉</text>
  <text x="140" y="47" font-family="ui-sans-serif,-apple-system,sans-serif" font-size="26" font-weight="700" fill="#1E293B">Gemini</text>
  <text x="400" y="47" font-family="ui-sans-serif,-apple-system,sans-serif" font-size="24" fill="#8B5CF6" font-weight="600">看图吃饭</text>
  <rect x="700" y="16" width="120" height="40" rx="20" fill="#8B5CF6" opacity="0.15"/>
  <text x="760" y="43" text-anchor="middle" font-family="ui-sans-serif,-apple-system,sans-serif" font-size="17" font-weight="600" fill="#8B5CF6">多模态</text>
</g>
<g transform="translate(140, 480)">
  <rect x="0" y="0" width="1512" height="72" rx="16" fill="#FFF0E6"/>
  <text x="50" y="47" font-family="ui-sans-serif,-apple-system,sans-serif" font-size="28" fill="#1E293B">4</text>
  <text x="140" y="47" font-family="ui-sans-serif,-apple-system,sans-serif" font-size="26" font-weight="700" fill="#1E293B">Claude</text>
  <text x="400" y="47" font-family="ui-sans-serif,-apple-system,sans-serif" font-size="24" fill="#CC4C00" font-weight="600">"无法确认"</text>
  <rect x="700" y="16" width="120" height="40" rx="20" fill="#CC4C00" opacity="0.15"/>
  <text x="760" y="43" text-anchor="middle" font-family="ui-sans-serif,-apple-system,sans-serif" font-size="17" font-weight="600" fill="#CC4C00">礼貌过头</text>
</g>
<g transform="translate(140, 580)">
  <rect x="0" y="0" width="1512" height="72" rx="16" fill="#EEF0FF"/>
  <text x="50" y="47" font-family="ui-sans-serif,-apple-system,sans-serif" font-size="28" fill="#1E293B">5</text>
  <text x="140" y="47" font-family="ui-sans-serif,-apple-system,sans-serif" font-size="26" font-weight="700" fill="#1E293B">DeepSeek</text>
  <text x="400" y="47" font-family="ui-sans-serif,-apple-system,sans-serif" font-size="24" fill="#4F6EF7" font-weight="600">0.0001 碗</text>
  <rect x="700" y="16" width="120" height="40" rx="20" fill="#4F6EF7" opacity="0.15"/>
  <text x="760" y="43" text-anchor="middle" font-family="ui-sans-serif,-apple-system,sans-serif" font-size="17" font-weight="600" fill="#4F6EF7">论文型</text>
</g>
<g transform="translate(140, 680)">
  <rect x="0" y="0" width="1512" height="72" rx="16" fill="#FFF0E0"/>
  <text x="50" y="47" font-family="ui-sans-serif,-apple-system,sans-serif" font-size="28" fill="#1E293B">6</text>
  <text x="140" y="47" font-family="ui-sans-serif,-apple-system,sans-serif" font-size="26" font-weight="700" fill="#1E293B">文心一言</text>
  <text x="400" y="47" font-family="ui-sans-serif,-apple-system,sans-serif" font-size="24" fill="#FF6A00" font-weight="600">先科普不回答</text>
  <rect x="700" y="16" width="120" height="40" rx="20" fill="#FF6A00" opacity="0.15"/>
  <text x="760" y="43" text-anchor="middle" font-family="ui-sans-serif,-apple-system,sans-serif" font-size="17" font-weight="600" fill="#FF6A00">百科全书</text>
</g>
<text x="896" y="960" text-anchor="middle" font-family="ui-sans-serif,-apple-system,sans-serif" font-size="20" fill="#94A3B8">你问过 AI 什么离谱问题？评论区分享 👇</text>

</svg>