<svg xmlns="http://www.w3.org/2000/svg" viewBox="0 0 1024 1024">
<defs><linearGradient id="bgG" x1="0%" y1="0%" x2="100%" y2="100%"><stop offset="0%" stop-color="#FAF7F2"/><stop offset="100%" stop-color="#F3F0E8"/></linearGradient></defs>
<rect width="1024" height="1024" fill="url(#bgG)"/><circle cx="61.44" cy="61.44" r="60" fill="#F3E8FF" opacity="0.5"/><circle cx="962.56" cy="102.4" r="50" fill="#D1FAE5" opacity="0.4"/><circle cx="61.44" cy="921.6" r="70" fill="#DBEAFE" opacity="0.4"/><circle cx="962.56" cy="870.4" r="80" fill="#FFEDD5" opacity="0.4"/>

<text x="512" y="70" text-anchor="middle" font-family="ui-sans-serif,-apple-system,sans-serif" font-size="34" font-weight="800" fill="#1E293B">综合推荐排名</text>

<g transform="translate(62, 145)">
  <rect x="0" y="0" width="900" height="135" rx="14" fill="#FFFFFF" stroke="#9B59B6" stroke-width="1" stroke-opacity="0.3"/>
  <rect x="0" y="0" width="4" height="135" rx="2" fill="#9B59B6"/>
  <text x="24" y="46" font-family="ui-sans-serif,-apple-system,sans-serif" font-size="30" font-weight="800" fill="#9B59B6">#1 Midjourney</text>
  <text x="24" y="82" font-family="ui-sans-serif,-apple-system,sans-serif" font-size="20" font-weight="600" fill="#1E293B">专业设计师首选</text>
  <text x="24" y="114" font-family="ui-sans-serif,-apple-system,sans-serif" font-size="17" fill="#64748B">画质顶尖但最贵，适合商业出图</text>
</g>
<g transform="translate(62, 300)">
  <rect x="0" y="0" width="900" height="135" rx="14" fill="#FFFFFF" stroke="#10B981" stroke-width="1" stroke-opacity="0.3"/>
  <rect x="0" y="0" width="4" height="135" rx="2" fill="#10B981"/>
  <text x="24" y="46" font-family="ui-sans-serif,-apple-system,sans-serif" font-size="30" font-weight="800" fill="#10B981">#2 DALL-E 3</text>
  <text x="24" y="82" font-family="ui-sans-serif,-apple-system,sans-serif" font-size="20" font-weight="600" fill="#1E293B">新手友好全能王</text>
  <text x="24" y="114" font-family="ui-sans-serif,-apple-system,sans-serif" font-size="17" fill="#64748B">ChatGPT 用户无脑入，日常够用</text>
</g>
<g transform="translate(62, 455)">
  <rect x="0" y="0" width="900" height="135" rx="14" fill="#FFFFFF" stroke="#3B82F6" stroke-width="1" stroke-opacity="0.3"/>
  <rect x="0" y="0" width="4" height="135" rx="2" fill="#3B82F6"/>
  <text x="24" y="46" font-family="ui-sans-serif,-apple-system,sans-serif" font-size="30" font-weight="800" fill="#3B82F6">#3 Stable Diffusion</text>
  <text x="24" y="82" font-family="ui-sans-serif,-apple-system,sans-serif" font-size="20" font-weight="600" fill="#1E293B">技术玩家进阶之选</text>
  <text x="24" y="114" font-family="ui-sans-serif,-apple-system,sans-serif" font-size="17" fill="#64748B">免费但需折腾，上限极高</text>
</g>
<g transform="translate(62, 610)">
  <rect x="0" y="0" width="900" height="135" rx="14" fill="#FFFFFF" stroke="#06B6D4" stroke-width="1" stroke-opacity="0.3"/>
  <rect x="0" y="0" width="4" height="135" rx="2" fill="#06B6D4"/>
  <text x="24" y="46" font-family="ui-sans-serif,-apple-system,sans-serif" font-size="30" font-weight="800" fill="#06B6D4">#4 Leonardo.ai</text>
  <text x="24" y="82" font-family="ui-sans-serif,-apple-system,sans-serif" font-size="20" font-weight="600" fill="#1E293B">游戏/素材生产力</text>
  <text x="24" y="114" font-family="ui-sans-serif,-apple-system,sans-serif" font-size="17" fill="#64748B">Web 端体验好，免费额度够用</text>
</g>
<g transform="translate(62, 765)">
  <rect x="0" y="0" width="900" height="135" rx="14" fill="#FFFFFF" stroke="#F97316" stroke-width="1" stroke-opacity="0.3"/>
  <rect x="0" y="0" width="4" height="135" rx="2" fill="#F97316"/>
  <text x="24" y="46" font-family="ui-sans-serif,-apple-system,sans-serif" font-size="30" font-weight="800" fill="#F97316">#5 即梦</text>
  <text x="24" y="82" font-family="ui-sans-serif,-apple-system,sans-serif" font-size="20" font-weight="600" fill="#1E293B">国内用户首选</text>
  <text x="24" y="114" font-family="ui-sans-serif,-apple-system,sans-serif" font-size="17" fill="#64748B">免费中文友好，小红书出图神器</text>
</g>
<text x="512" y="990" text-anchor="middle" font-family="ui-sans-serif,-apple-system,sans-serif" font-size="14" fill="#94A3B8">排名仅供参考，实际选择取决于使用场景和预算</text>

</svg>