<svg xmlns="http://www.w3.org/2000/svg" viewBox="0 0 1024 1024">
<defs><linearGradient id="bgG" x1="0%" y1="0%" x2="100%" y2="100%"><stop offset="0%" stop-color="#FAF7F2"/><stop offset="100%" stop-color="#F3F0E8"/></linearGradient></defs>
<rect width="1024" height="1024" fill="url(#bgG)"/><circle cx="61.44" cy="61.44" r="60" fill="#F3E8FF" opacity="0.5"/><circle cx="962.56" cy="102.4" r="50" fill="#D1FAE5" opacity="0.4"/><circle cx="61.44" cy="921.6" r="70" fill="#DBEAFE" opacity="0.4"/><circle cx="962.56" cy="870.4" r="80" fill="#FFEDD5" opacity="0.4"/>

<defs><filter id="s" x="-5%" y="-5%" width="110%" height="110%"><feDropShadow dx="0" dy="3" stdDeviation="6" flood-color="#000" flood-opacity="0.08"/></filter></defs>
<text x="512" y="130" text-anchor="middle" font-family="ui-sans-serif,-apple-system,sans-serif" font-size="56" font-weight="900" fill="#1E293B" letter-spacing="-2">AI 画图工具横评</text>
<text x="512" y="195" text-anchor="middle" font-family="ui-sans-serif,-apple-system,sans-serif" font-size="26" fill="#64748B">2026 主流 AI 绘画工具全对比</text>

<g transform="translate(62, 300)">
  <rect x="0" y="0" width="900" height="90" rx="18" fill="#FFFFFF" stroke="#9B59B6" stroke-width="2" filter="url(#s)"/>
  <text x="450" y="55" text-anchor="middle" font-family="ui-sans-serif,-apple-system,sans-serif" font-size="36" font-weight="800" fill="#9B59B6">Midjourney</text>
</g>
<g transform="translate(62, 415)">
  <rect x="0" y="0" width="900" height="90" rx="18" fill="#FFFFFF" stroke="#10B981" stroke-width="2" filter="url(#s)"/>
  <text x="450" y="55" text-anchor="middle" font-family="ui-sans-serif,-apple-system,sans-serif" font-size="36" font-weight="800" fill="#10B981">DALL-E 3</text>
</g>
<g transform="translate(62, 530)">
  <rect x="0" y="0" width="900" height="90" rx="18" fill="#FFFFFF" stroke="#3B82F6" stroke-width="2" filter="url(#s)"/>
  <text x="450" y="55" text-anchor="middle" font-family="ui-sans-serif,-apple-system,sans-serif" font-size="36" font-weight="800" fill="#3B82F6">Stable Diffusion</text>
</g>
<g transform="translate(62, 645)">
  <rect x="0" y="0" width="900" height="90" rx="18" fill="#FFFFFF" stroke="#06B6D4" stroke-width="2" filter="url(#s)"/>
  <text x="450" y="55" text-anchor="middle" font-family="ui-sans-serif,-apple-system,sans-serif" font-size="36" font-weight="800" fill="#06B6D4">Leonardo.ai</text>
</g>
<g transform="translate(62, 760)">
  <rect x="0" y="0" width="900" height="90" rx="18" fill="#FFFFFF" stroke="#F97316" stroke-width="2" filter="url(#s)"/>
  <text x="450" y="55" text-anchor="middle" font-family="ui-sans-serif,-apple-system,sans-serif" font-size="36" font-weight="800" fill="#F97316">即梦</text>
</g>
<text x="512" y="990" text-anchor="middle" font-family="ui-sans-serif,-apple-system,sans-serif" font-size="16" fill="#94A3B8">从入门到专业，一张图看懂怎么选</text>

</svg>