<?xml version="1.0" encoding="UTF-8"?>
<svg width="1024" height="1024" viewBox="0 0 1024 1024" xmlns="http://www.w3.org/2000/svg">
  <defs><linearGradient id="bg" x1="0%" y1="0%" x2="0%" y2="100%"><stop offset="0%" stop-color="#FAF7F2"/><stop offset="100%" stop-color="#F0EBE0"/></linearGradient><linearGradient id="ab" x1="0%" y1="0%" x2="100%" y2="0%"><stop offset="0%" stop-color="#2563EB"/><stop offset="100%" stop-color="#2563EB" stop-opacity="0.5"/></linearGradient><filter id="sh" x="-10%" y="-10%" width="120%" height="120%"><feDropShadow dx="0" dy="6" stdDeviation="12" flood-color="#000" flood-opacity="0.08"/></filter></defs> <rect width="1024" height="1024" fill="url(#bg)"/> <rect width="1024" height="8" fill="url(#ab)"/> <text x="512" y="100" text-anchor="middle" font-size="52" fill="#0F172A" font-family="PingFang SC, Microsoft YaHei, sans-serif" font-weight="800">AI 黑科技全家桶</text> <text x="512" y="145" text-anchor="middle" font-size="24" fill="#64748B" font-family="PingFang SC, Microsoft YaHei, sans-serif" font-weight="500">四个功能，覆盖 90% 创作场景</text> <line x1="312" y1="170" x2="712" y2="170" stroke="#2563EB" stroke-width="3" stroke-linecap="round" opacity="0.25"/> <rect x="60" y="210" width="430" height="280" rx="24" fill="#FFFFFF" filter="url(#sh)"/> <rect x="60" y="210" width="430" height="6" rx="24" fill="#8B5CF6"/> <text x="90" y="275" font-size="48" font-family="sans-serif">🎤</text> <text x="155" y="275" font-size="32" fill="#8B5CF6" font-family="PingFang SC, Microsoft YaHei, sans-serif" font-weight="800">声音克隆</text> <text x="90" y="330" font-size="22" fill="#64748B" font-family="PingFang SC, Microsoft YaHei, sans-serif" font-weight="500">复制你的声音</text> <text x="90" y="375" font-size="22" fill="#64748B" font-family="PingFang SC, Microsoft YaHei, sans-serif" font-weight="500">相似度达 99%</text> <rect x="550" y="210" width="430" height="280" rx="24" fill="#FFFFFF" filter="url(#sh)"/> <rect x="550" y="210" width="430" height="6" rx="24" fill="#2563EB"/> <text x="580" y="275" font-size="48" font-family="sans-serif">🌍</text> <text x="645" y="275" font-size="32" fill="#2563EB" font-family="PingFang SC, Microsoft YaHei, sans-serif" font-weight="800">视频翻译</text> <text x="580" y="330" font-size="22" fill="#64748B" font-family="PingFang SC, Microsoft YaHei, sans-serif" font-weight="500">一键翻译多语言</text> <text x="580" y="375" font-size="22" fill="#64748B" font-family="PingFang SC, Microsoft YaHei, sans-serif" font-weight="500">短剧出海利器</text> <rect x="60" y="540" width="430" height="280" rx="24" fill="#FFFFFF" filter="url(#sh)"/> <rect x="60" y="540" width="430" height="6" rx="24" fill="#10B981"/> <text x="90" y="605" font-size="48" font-family="sans-serif">🔊</text> <text x="155" y="605" font-size="32" fill="#10B981" font-family="PingFang SC, Microsoft YaHei, sans-serif" font-weight="800">人声分离</text> <text x="90" y="660" font-size="22" fill="#64748B" font-family="PingFang SC, Microsoft YaHei, sans-serif" font-weight="500">清空背景噪音</text> <text x="90" y="705" font-size="22" fill="#64748B" font-family="PingFang SC, Microsoft YaHei, sans-serif" font-weight="500">提取纯净人声</text> <rect x="550" y="540" width="430" height="280" rx="24" fill="#FFFFFF" filter="url(#sh)"/> <rect x="550" y="540" width="430" height="6" rx="24" fill="#F59E0B"/> <text x="580" y="605" font-size="48" font-family="sans-serif">🧹</text> <text x="645" y="605" font-size="32" fill="#F59E0B" font-family="PingFang SC, Microsoft YaHei, sans-serif" font-weight="800">AI 去水印</text> <text x="580" y="660" font-size="22" fill="#64748B" font-family="PingFang SC, Microsoft YaHei, sans-serif" font-weight="500">消除 LOGO 物体</text> <text x="580" y="705" font-size="22" fill="#64748B" font-family="PingFang SC, Microsoft YaHei, sans-serif" font-weight="500">智能擦除不留痕</text> <text x="512" y="960" text-anchor="middle" font-size="16" fill="#94A3B8" font-family="PingFang SC, Microsoft YaHei, sans-serif">github.com/OpenCut-app/OpenCut</text>
</svg>