<svg xmlns="http://www.w3.org/2000/svg" viewBox="0 0 1024 1024">
<defs><linearGradient id="bgG" x1="0%" y1="0%" x2="100%" y2="100%"><stop offset="0%" stop-color="#FAF7F2"/><stop offset="100%" stop-color="#F3F0E8"/></linearGradient>
<linearGradient id="lobsterG" x1="0%" y1="0%" x2="100%" y2="100%"><stop offset="0%" stop-color="#ff4d4d"/><stop offset="100%" stop-color="#cc2222"/></linearGradient></defs>
<rect width="1024" height="1024" fill="url(#bgG)"/><circle cx="81.92" cy="81.92" r="60" fill="#E8EEFF" opacity="0.5"/><circle cx="942.08" cy="122.88" r="50" fill="#EDE9FE" opacity="0.4"/><circle cx="81.92" cy="901.12" r="70" fill="#E0F2FE" opacity="0.3"/><circle cx="942.08" cy="798.72" r="80" fill="#FFEDD5" opacity="0.3"/>

<text x="512" y="90" text-anchor="middle" font-family="ui-sans-serif,-apple-system,sans-serif" font-size="42" font-weight="800" fill="#1E293B">飞书官方插件</text>
<text x="512" y="132" text-anchor="middle" font-family="ui-sans-serif,-apple-system,sans-serif" font-size="22" fill="#64748B">@larksuite/openclaw-lark · 字节飞书团队维护</text>

<g transform="translate(62, 165)">
  <rect x="0" y="0" width="900" height="88" rx="16" fill="#E8EEFF"/>
  <text x="30" y="40" font-family="ui-monospace,monospace" font-size="20" font-weight="600" fill="#3370FF">messages</text>
  <text x="30" y="70" font-family="ui-sans-serif,-apple-system,sans-serif" font-size="20" font-weight="600" fill="#1E293B">消息 💬</text>
  <text x="380" y="52" font-family="ui-sans-serif,-apple-system,sans-serif" font-size="17" fill="#64748B">读写私聊/群聊 · 回复线程 · 搜索 · 文件下载</text>
</g>
<g transform="translate(62, 273)">
  <rect x="0" y="0" width="900" height="88" rx="16" fill="#E0F2FE"/>
  <text x="30" y="40" font-family="ui-monospace,monospace" font-size="20" font-weight="600" fill="#0EA5E9">docs</text>
  <text x="30" y="70" font-family="ui-sans-serif,-apple-system,sans-serif" font-size="20" font-weight="600" fill="#1E293B">文档 📄</text>
  <text x="380" y="52" font-family="ui-sans-serif,-apple-system,sans-serif" font-size="17" fill="#64748B">创建 · 更新 · 读取飞书文档</text>
</g>
<g transform="translate(62, 381)">
  <rect x="0" y="0" width="900" height="88" rx="16" fill="#EDE9FE"/>
  <text x="30" y="40" font-family="ui-monospace,monospace" font-size="20" font-weight="600" fill="#8B5CF6">base</text>
  <text x="30" y="70" font-family="ui-sans-serif,-apple-system,sans-serif" font-size="20" font-weight="600" fill="#1E293B">多维表格 📊</text>
  <text x="380" y="52" font-family="ui-sans-serif,-apple-system,sans-serif" font-size="17" fill="#64748B">管理 Base · 表 · 字段 · 记录 · 视图</text>
</g>
<g transform="translate(62, 489)">
  <rect x="0" y="0" width="900" height="88" rx="16" fill="#FFEDD5"/>
  <text x="30" y="40" font-family="ui-monospace,monospace" font-size="20" font-weight="600" fill="#F97316">sheets</text>
  <text x="30" y="70" font-family="ui-sans-serif,-apple-system,sans-serif" font-size="20" font-weight="600" fill="#1E293B">电子表格 📈</text>
  <text x="380" y="52" font-family="ui-sans-serif,-apple-system,sans-serif" font-size="17" fill="#64748B">创建 · 编辑 · 查看 · 公式配置</text>
</g>
<g transform="translate(62, 597)">
  <rect x="0" y="0" width="900" height="88" rx="16" fill="#D1FAE5"/>
  <text x="30" y="40" font-family="ui-monospace,monospace" font-size="20" font-weight="600" fill="#10B981">calendar</text>
  <text x="30" y="70" font-family="ui-sans-serif,-apple-system,sans-serif" font-size="20" font-weight="600" fill="#1E293B">日历 📅</text>
  <text x="380" y="52" font-family="ui-sans-serif,-apple-system,sans-serif" font-size="17" fill="#64748B">日程管理 · 参会人 · 忙闲查询</text>
</g>
<g transform="translate(62, 705)">
  <rect x="0" y="0" width="900" height="88" rx="16" fill="#FFE4E6"/>
  <text x="30" y="40" font-family="ui-monospace,monospace" font-size="20" font-weight="600" fill="#F43F5E">tasks</text>
  <text x="30" y="70" font-family="ui-sans-serif,-apple-system,sans-serif" font-size="20" font-weight="600" fill="#1E293B">任务 ✅</text>
  <text x="380" y="52" font-family="ui-sans-serif,-apple-system,sans-serif" font-size="17" fill="#64748B">创建/查询/更新 · 子任务 · 评论</text>
</g>
<text x="512" y="850" text-anchor="middle" font-family="ui-sans-serif,-apple-system,sans-serif" font-size="16" fill="#94A3B8">+ 交互式卡片 · 流式输出 · 权限策略 · 多账号</text>
<g transform="translate(162, 890)">
  <rect x="0" y="0" width="700" height="50" rx="25" fill="#3370FF" opacity="0.1"/>
  <text x="350" y="32" text-anchor="middle" font-family="ui-sans-serif,-apple-system,sans-serif" font-size="18" font-weight="600" fill="#3370FF">DM / 群聊双模式 · streaming · requireMention</text>
</g>

</svg>