<svg xmlns="http://www.w3.org/2000/svg" viewBox="0 0 1024 1024">
<defs><radialGradient id="bgG" cx="50%" cy="50%" r="75%"><stop offset="0%" stop-color="#131945"/><stop offset="100%" stop-color="#0B1027"/></radialGradient></defs>
<rect width="1024" height="1024" fill="url(#bgG)"/>

<filter id="shadow" x="-5%" y="-5%" width="110%" height="110%">
  <feDropShadow dx="0" dy="4" stdDeviation="12" flood-color="#00000040"/></filter>
<filter id="shadow2" x="-5%" y="-5%" width="110%" height="110%">
  <feDropShadow dx="0" dy="2" stdDeviation="6" flood-color="#00000030"/></filter>
<g transform="translate(512, 85)">
  <text x="0" y="0" text-anchor="middle" font-family="ui-sans-serif,-apple-system,sans-serif" font-size="96" font-weight="900" fill="#FFFFFF">中国AI</text>
  <text x="0" y="115" text-anchor="middle" font-family="ui-sans-serif,-apple-system,sans-serif" font-size="88" font-weight="900" fill="#FCD34D">六小虎</text>
  <text x="0" y="180" text-anchor="middle" font-family="ui-sans-serif,-apple-system,sans-serif" font-size="34" font-weight="800" fill="#60A5FA">2026 最新格局全盘点</text>
</g>
<g transform="translate(512, 350)">
  <rect x="-280" y="-24" width="560" height="130" rx="20" fill="#1E3A5F" stroke="#60A5FA" stroke-width="1" filter="url(#shadow2)"/>
  <text x="0" y="18" text-anchor="middle" font-family="ui-sans-serif,-apple-system,sans-serif" font-size="28" font-weight="800" fill="#FCD34D">🔥 2026 格局巨变</text>
  <text x="0" y="60" text-anchor="middle" font-family="ui-sans-serif,-apple-system,sans-serif" font-size="18" fill="#CBD5E1">智谱 / MiniMax 港股上市</text>
  <text x="0" y="88" text-anchor="middle" font-family="ui-sans-serif,-apple-system,sans-serif" font-size="18" fill="#CBD5E1">Kimi 估值破200亿美元 · 阶跃星辰冲刺IPO</text>
  <text x="0" y="116" text-anchor="middle" font-family="ui-sans-serif,-apple-system,sans-serif" font-size="18" fill="#CBD5E1">百川押注医疗 · 零一万物加速出海</text>
</g>

<g transform="translate(72, 590)">
  <rect x="0" y="0" width="278" height="64" rx="16" fill="#1A2048" stroke="#60A5FA" stroke-width="1.5" filter="url(#shadow2)"/>
  <rect x="0" y="0" width="8" height="64" rx="4" fill="#60A5FA"/>
  <text x="22" y="28" font-family="ui-sans-serif,-apple-system,sans-serif" font-size="24" font-weight="800" fill="#FFFFFF">智谱 AI</text>
  <text x="22" y="52" font-family="ui-sans-serif,-apple-system,sans-serif" font-size="15" font-weight="700" fill="#60A5FA">政企之王</text>
</g>
<g transform="translate(370, 590)">
  <rect x="0" y="0" width="278" height="64" rx="16" fill="#1A2048" stroke="#A78BFA" stroke-width="1.5" filter="url(#shadow2)"/>
  <rect x="0" y="0" width="8" height="64" rx="4" fill="#A78BFA"/>
  <text x="22" y="28" font-family="ui-sans-serif,-apple-system,sans-serif" font-size="24" font-weight="800" fill="#FFFFFF">MiniMax</text>
  <text x="22" y="52" font-family="ui-sans-serif,-apple-system,sans-serif" font-size="15" font-weight="700" fill="#A78BFA">全球化多模态</text>
</g>
<g transform="translate(668, 590)">
  <rect x="0" y="0" width="278" height="64" rx="16" fill="#1A2048" stroke="#FCD34D" stroke-width="1.5" filter="url(#shadow2)"/>
  <rect x="0" y="0" width="8" height="64" rx="4" fill="#FCD34D"/>
  <text x="22" y="28" font-family="ui-sans-serif,-apple-system,sans-serif" font-size="24" font-weight="800" fill="#FFFFFF">月之暗面</text>
  <text x="22" y="52" font-family="ui-sans-serif,-apple-system,sans-serif" font-size="15" font-weight="700" fill="#FCD34D">C端超级入口</text>
</g>
<g transform="translate(72, 670)">
  <rect x="0" y="0" width="278" height="64" rx="16" fill="#1A2048" stroke="#34D399" stroke-width="1.5" filter="url(#shadow2)"/>
  <rect x="0" y="0" width="8" height="64" rx="4" fill="#34D399"/>
  <text x="22" y="28" font-family="ui-sans-serif,-apple-system,sans-serif" font-size="24" font-weight="800" fill="#FFFFFF">百川智能</text>
  <text x="22" y="52" font-family="ui-sans-serif,-apple-system,sans-serif" font-size="15" font-weight="700" fill="#34D399">医疗AI深耕</text>
</g>
<g transform="translate(370, 670)">
  <rect x="0" y="0" width="278" height="64" rx="16" fill="#1A2048" stroke="#F472B6" stroke-width="1.5" filter="url(#shadow2)"/>
  <rect x="0" y="0" width="8" height="64" rx="4" fill="#F472B6"/>
  <text x="22" y="28" font-family="ui-sans-serif,-apple-system,sans-serif" font-size="24" font-weight="800" fill="#FFFFFF">零一万物</text>
  <text x="22" y="52" font-family="ui-sans-serif,-apple-system,sans-serif" font-size="15" font-weight="700" fill="#F472B6">出海先锋</text>
</g>
<g transform="translate(668, 670)">
  <rect x="0" y="0" width="278" height="64" rx="16" fill="#1A2048" stroke="#FB923C" stroke-width="1.5" filter="url(#shadow2)"/>
  <rect x="0" y="0" width="8" height="64" rx="4" fill="#FB923C"/>
  <text x="22" y="28" font-family="ui-sans-serif,-apple-system,sans-serif" font-size="24" font-weight="800" fill="#FFFFFF">阶跃星辰</text>
  <text x="22" y="52" font-family="ui-sans-serif,-apple-system,sans-serif" font-size="15" font-weight="700" fill="#FB923C">端侧领跑者</text>
</g>
<g transform="translate(512, 975)">
  <text x="0" y="0" text-anchor="middle" font-family="ui-sans-serif,-apple-system,sans-serif" font-size="14" fill="#64748B">数据来源：各公司公开信息 · 市值截至2026.5</text>
</g>

</svg>