<svg xmlns="http://www.w3.org/2000/svg" viewBox="0 0 1024 1024" width="1024" height="1024">
  <defs>
    <radialGradient id="bg" cx="50%" cy="40%" r="70%">
      <stop offset="0%" stop-color="#FAF7F2"/>
      <stop offset="100%" stop-color="#F0EAE0"/>
    </radialGradient>
    <linearGradient id="titleGrad" x1="0%" y1="0%" x2="100%" y2="0%">
      <stop offset="0%" stop-color="#DC2626"/>
      <stop offset="50%" stop-color="#7C3AED"/>
      <stop offset="100%" stop-color="#1E293B"/>
    </linearGradient>
  </defs>
  <rect width="1024" height="1024" fill="url(#bg)"/>

  <circle cx="120" cy="120" r="140" fill="#FEE2E2" opacity="0.4"/>
  <circle cx="900" cy="180" r="100" fill="#EDE9FE" opacity="0.3"/>
  <circle cx="180" cy="900" r="110" fill="#FCE7F3" opacity="0.3"/>
  <circle cx="900" cy="880" r="90" fill="#DBEAFE" opacity="0.3"/>

  <rect x="312" y="40" width="400" height="52" rx="26" fill="#FEE2E2"/>
  <text x="512" y="75" text-anchor="middle" font-family="PingFang SC, Microsoft YaHei, sans-serif" font-size="24" font-weight="700" fill="#DC2626">💀 2025-2026 关停大盘点</text>

  <text x="512" y="210" text-anchor="middle" font-family="PingFang SC, Microsoft YaHei, sans-serif" font-size="108" font-weight="900" fill="url(#titleGrad)">AI 产品死亡名单</text>

  <rect x="262" y="260" width="500" height="4" rx="2" fill="#DC2626" opacity="0.3"/>

  <text x="512" y="340" text-anchor="middle" font-family="PingFang SC, Microsoft YaHei, sans-serif" font-size="36" font-weight="800" fill="#1E293B">烧了几百亿，说没就没了</text>

  <line x1="200" y1="430" x2="824" y2="430" stroke="#E2E8F0" stroke-width="1"/>

  <text x="512" y="480" text-anchor="middle" font-family="PingFang SC, Microsoft YaHei, sans-serif" font-size="26" font-weight="700" fill="#64748B">📊 一组触目惊心的数据</text>

  <rect x="80" y="530" width="200" height="88" rx="16" fill="#FEE2E2"/>
  <text x="180" y="585" text-anchor="middle" font-family="PingFang SC, Microsoft YaHei, sans-serif" font-size="40" font-weight="900" fill="#DC2626">3800+</text>
  <text x="320" y="585" font-family="PingFang SC, Microsoft YaHei, sans-serif" font-size="26" fill="#1E293B">AI 初创在 2025 年关停</text>

  <rect x="80" y="648" width="200" height="88" rx="16" fill="#EDE9FE"/>
  <text x="180" y="703" text-anchor="middle" font-family="PingFang SC, Microsoft YaHei, sans-serif" font-size="40" font-weight="900" fill="#7C3AED">40%</text>
  <text x="320" y="703" font-family="PingFang SC, Microsoft YaHei, sans-serif" font-size="26" fill="#1E293B">24 个月内创业失败率</text>

  <rect x="80" y="766" width="200" height="88" rx="16" fill="#FCE7F3"/>
  <text x="180" y="821" text-anchor="middle" font-family="PingFang SC, Microsoft YaHei, sans-serif" font-size="40" font-weight="900" fill="#EC4899">1592</text>
  <text x="320" y="821" font-family="PingFang SC, Microsoft YaHei, sans-serif" font-size="26" fill="#1E293B">个 AI 工具有墓碑</text>

  <rect x="80" y="884" width="200" height="88" rx="16" fill="#DBEAFE"/>
  <text x="180" y="939" text-anchor="middle" font-family="PingFang SC, Microsoft YaHei, sans-serif" font-size="40" font-weight="900" fill="#2563EB">25+</text>
  <text x="320" y="939" font-family="PingFang SC, Microsoft YaHei, sans-serif" font-size="26" fill="#1E293B">国产 AI 应用 2025 年停运</text>
</svg>