<svg xmlns="http://www.w3.org/2000/svg" viewBox="0 0 800 800" width="800" height="800">
  <defs>
    <linearGradient id="bg" x1="0%" y1="0%" x2="100%" y2="100%">
      <stop offset="0%" stop-color="#FAF7F2"/>
      <stop offset="100%" stop-color="#F5F0E8"/>
    </linearGradient>

  </defs>
  <rect width="800" height="800" fill="url(#bg)"/>
  <circle cx="80" cy="80" r="60" fill="#FEE2E2" opacity="0.5"/>
  <circle cx="720" cy="720" r="70" fill="#EDE9FE" opacity="0.4"/>

  <rect x="40" y="40" width="720" height="100" rx="50" fill="#FEE2E2"/>
  <text x="400" y="110" text-anchor="middle" font-family="PingFang SC, Microsoft YaHei, sans-serif" font-size="48" font-weight="900" fill="#1E293B">🌍 全球重磅</text>

  <g transform="translate(40, 175)">
    <rect x="0" y="0" width="720" height="100" rx="20" fill="#F5F0E8"/>
    <rect x="0" y="0" width="14" height="100" rx="7" fill="#DC2626"/>
    <text x="40" y="42" font-family="PingFang SC, Microsoft YaHei, sans-serif" font-size="24" font-weight="800" fill="#1E293B">OpenAI Sora</text>
    <text x="300" y="42" font-family="PingFang SC, Microsoft YaHei, sans-serif" font-size="16" fill="#DC2626">2026.3 关停</text>
    <text x="40" y="78" font-family="PingFang SC, Microsoft YaHei, sans-serif" font-size="16" fill="#64748B">日运营成本 $1500万 / 月收入仅 $54万 / 10亿迪士尼合作泡汤</text>
  </g>

  <g transform="translate(40, 300)">
    <rect x="0" y="0" width="720" height="100" rx="20" fill="#F5F0E8"/>
    <rect x="0" y="0" width="14" height="100" rx="7" fill="#DC2626"/>
    <text x="40" y="42" font-family="PingFang SC, Microsoft YaHei, sans-serif" font-size="24" font-weight="800" fill="#1E293B">Humane AI Pin</text>
    <text x="300" y="42" font-family="PingFang SC, Microsoft YaHei, sans-serif" font-size="16" fill="#DC2626">2025.2 关停</text>
    <text x="40" y="78" font-family="PingFang SC, Microsoft YaHei, sans-serif" font-size="16" fill="#64748B">融资 $2.3亿 / 卖身 HP 仅 $1.16亿 / $699 变废铁</text>
  </g>

  <g transform="translate(40, 425)">
    <rect x="0" y="0" width="720" height="100" rx="20" fill="#F5F0E8"/>
    <rect x="0" y="0" width="14" height="100" rx="7" fill="#DC2626"/>
    <text x="40" y="42" font-family="PingFang SC, Microsoft YaHei, sans-serif" font-size="24" font-weight="800" fill="#1E293B">Builder.ai</text>
    <text x="300" y="42" font-family="PingFang SC, Microsoft YaHei, sans-serif" font-size="16" fill="#DC2626">2025 倒闭</text>
    <text x="40" y="78" font-family="PingFang SC, Microsoft YaHei, sans-serif" font-size="16" fill="#64748B">融资 $4.45亿 / "AI编程"实为印度外包 / 收入虚报 75%</text>
  </g>

  <g transform="translate(40, 550)">
    <rect x="0" y="0" width="720" height="100" rx="20" fill="#F5F0E8"/>
    <rect x="0" y="0" width="14" height="100" rx="7" fill="#DC2626"/>
    <text x="40" y="42" font-family="PingFang SC, Microsoft YaHei, sans-serif" font-size="24" font-weight="800" fill="#1E293B">Stability AI</text>
    <text x="300" y="42" font-family="PingFang SC, Microsoft YaHei, sans-serif" font-size="16" fill="#DC2626">2025 严重萎缩</text>
    <text x="40" y="78" font-family="PingFang SC, Microsoft YaHei, sans-serif" font-size="16" fill="#64748B">CEO 辞职 / 裁员 10% / 版权诉讼 / 核心团队流失</text>
  </g>

  <g transform="translate(40, 680)">
    <rect x="0" y="0" width="720" height="80" rx="40" fill="#FEE2E2"/>
    <text x="360" y="48" text-anchor="middle" font-family="PingFang SC, Microsoft YaHei, sans-serif" font-size="22" font-weight="800" fill="#DC2626">还有 Rabbit R1 · Inflection AI · Tome AI</text>
  </g>
</svg>