<svg xmlns="http://www.w3.org/2000/svg" viewBox="0 0 800 800" width="800" height="800">
  <defs>
    <linearGradient id="bg" x1="0%" y1="0%" x2="100%" y2="100%">
      <stop offset="0%" stop-color="#FAF7F2"/>
      <stop offset="100%" stop-color="#F5F0E8"/>
    </linearGradient>

  </defs>
  <rect width="800" height="800" fill="url(#bg)"/>
  <circle cx="80" cy="80" r="60" fill="#D1FAE5" opacity="0.5"/>
  <circle cx="720" cy="720" r="60" fill="#DBEAFE" opacity="0.4"/>

  <rect x="40" y="40" width="720" height="100" rx="50" fill="#D1FAE5"/>
  <text x="400" y="110" text-anchor="middle" font-family="PingFang SC, Microsoft YaHei, sans-serif" font-size="48" font-weight="900" fill="#1E293B">🏆 谁活下来了？</text>

  <g transform="translate(40, 175)">
    <rect x="0" y="0" width="345" height="70" rx="16" fill="#F5F0E8"/>
    <text x="20" y="45" font-family="PingFang SC, Microsoft YaHei, sans-serif" font-size="22" font-weight="800" fill="#1E293B">Cursor</text>
    <text x="100" y="45" font-family="PingFang SC, Microsoft YaHei, sans-serif" font-size="16" fill="#059669">AI编程 · 幸存</text>
  </g>
  <g transform="translate(415, 175)">
    <rect x="0" y="0" width="345" height="70" rx="16" fill="#F5F0E8"/>
    <text x="20" y="45" font-family="PingFang SC, Microsoft YaHei, sans-serif" font-size="22" font-weight="800" fill="#1E293B">GitHub Copilot</text>
    <text x="180" y="45" font-family="PingFang SC, Microsoft YaHei, sans-serif" font-size="16" fill="#2563EB">AI编程 · 幸存</text>
  </g>

  <g transform="translate(40, 270)">
    <rect x="0" y="0" width="345" height="70" rx="16" fill="#F5F0E8"/>
    <text x="20" y="45" font-family="PingFang SC, Microsoft YaHei, sans-serif" font-size="22" font-weight="800" fill="#1E293B">ChatGPT</text>
    <text x="120" y="45" font-family="PingFang SC, Microsoft YaHei, sans-serif" font-size="16" fill="#059669">超级平台 · 幸存</text>
  </g>
  <g transform="translate(415, 270)">
    <rect x="0" y="0" width="345" height="70" rx="16" fill="#F5F0E8"/>
    <text x="20" y="45" font-family="PingFang SC, Microsoft YaHei, sans-serif" font-size="22" font-weight="800" fill="#1E293B">Claude</text>
    <text x="100" y="45" font-family="PingFang SC, Microsoft YaHei, sans-serif" font-size="16" fill="#7C3AED">深度推理 · 幸存</text>
  </g>

  <g transform="translate(40, 365)">
    <rect x="0" y="0" width="345" height="70" rx="16" fill="#F5F0E8"/>
    <text x="20" y="45" font-family="PingFang SC, Microsoft YaHei, sans-serif" font-size="22" font-weight="800" fill="#1E293B">Midjourney</text>
    <text x="150" y="45" font-family="PingFang SC, Microsoft YaHei, sans-serif" font-size="16" fill="#059669">图像 · 幸存</text>
  </g>
  <g transform="translate(415, 365)">
    <rect x="0" y="0" width="345" height="70" rx="16" fill="#F5F0E8"/>
    <text x="20" y="45" font-family="PingFang SC, Microsoft YaHei, sans-serif" font-size="22" font-weight="800" fill="#1E293B">Perplexity</text>
    <text x="140" y="45" font-family="PingFang SC, Microsoft YaHei, sans-serif" font-size="16" fill="#2563EB">AI搜索 · 幸存</text>
  </g>

  <g transform="translate(40, 460)">
    <rect x="0" y="0" width="720" height="70" rx="16" fill="#F5F0E8"/>
    <text x="20" y="45" font-family="PingFang SC, Microsoft YaHei, sans-serif" font-size="22" font-weight="800" fill="#1E293B">豆包 · DeepSeek · Notion AI · Grammarly</text>
    <text x="580" y="45" font-family="PingFang SC, Microsoft YaHei, sans-serif" font-size="16" fill="#059669">··· 幸存</text>
  </g>

  <g transform="translate(40, 565)">
    <rect x="0" y="0" width="720" height="100" rx="20" fill="#F5F0E8"/>
    <text x="360" y="42" text-anchor="middle" font-family="PingFang SC, Microsoft YaHei, sans-serif" font-size="20" font-weight="700" fill="#1E293B">它们做对了什么？</text>
    <line x1="60" y1="62" x2="660" y2="62" stroke="#E2E8F0" stroke-width="1"/>
    <text x="360" y="88" text-anchor="middle" font-family="PingFang SC, Microsoft YaHei, sans-serif" font-size="16" fill="#64748B">不是薄包装 · 嵌入用户工作流 · 有数据飞轮</text>
  </g>

  <g transform="translate(40, 695)">
    <rect x="0" y="0" width="720" height="70" rx="35" fill="#FEE2E2"/>
    <text x="360" y="43" text-anchor="middle" font-family="PingFang SC, Microsoft YaHei, sans-serif" font-size="22" font-weight="800" fill="#DC2626">💡 结论：做产品，别做 API 皮肤</text>
  </g>
</svg>