<svg xmlns="http://www.w3.org/2000/svg" viewBox="0 0 1024 1024">
<defs><linearGradient id="bgG" x1="0%" y1="0%" x2="100%" y2="100%"><stop offset="0%" stop-color="#FAF7F2"/><stop offset="100%" stop-color="#F3F0E8"/></linearGradient></defs>
<rect width="1024" height="1024" fill="url(#bgG)"/>
<circle cx="81.92" cy="81.92" r="61.44" fill="#E0F2FE" opacity="0.4"/><circle cx="942.08" cy="122.88" r="51.2" fill="#EDE9FE" opacity="0.4"/><circle cx="81.92" cy="901.12" r="71.68" fill="#FFEDD5" opacity="0.3"/><circle cx="942.08" cy="798.72" r="81.92" fill="#D1FAE5" opacity="0.3"/>

<filter id="shadow" x="-5%" y="-5%" width="110%" height="110%">
  <feDropShadow dx="0" dy="4" stdDeviation="8" flood-color="#00000010"/>
</filter>

<rect x="62" y="100" width="900" height="740" rx="28" fill="#FFFFFF" filter="url(#shadow)"/>
<rect x="62" y="100" width="900" height="110" rx="28" fill="#76B900"/>
<rect x="62" y="180" width="900" height="30" rx="0" fill="#76B900"/>
<g transform="translate(100, 120)"><rect x="0" y="0" width="52" height="52" rx="12" fill="#76B900"/><text x="26" y="34" text-anchor="middle" font-family="ui-sans-serif,-apple-system,sans-serif" font-size="22" font-weight="900" fill="#FFF">N</text></g>
<text x="512" y="168" text-anchor="middle" font-family="ui-sans-serif,-apple-system,sans-serif" font-size="38" font-weight="800" fill="#FFF">🥇 TOP 1</text>
<g transform="translate(100, 260)">
  <rect x="0" y="0" width="824" height="240" rx="16" fill="#E8F5D8"/>
  <text x="40" y="45" font-family="ui-sans-serif,-apple-system,sans-serif" font-size="30" font-weight="700" fill="#1E293B">NVIDIA RTX Spark</text>
  <text x="40" y="90" font-family="ui-sans-serif,-apple-system,sans-serif" font-size="20" fill="#64748B"><tspan x="40" dy="0">英伟达发布全新AI PC芯片</tspan><tspan x="40" dy="28">Windows迎来真AI PC时代</tspan><tspan x="40" dy="28">知乎热榜第13名·124万热度</tspan></text>
  <text x="40" y="195" font-family="ui-sans-serif,-apple-system,sans-serif" font-size="19" fill="#76B900" font-weight="600">🔥 124万热度 · 知乎热榜#13</text>
</g>
<g transform="translate(100, 560)">
  <rect x="0" y="0" width="824" height="80" rx="16" fill="#FAF7F2" stroke="#E2E8F0" stroke-width="1"/>
  <text x="412" y="35" text-anchor="middle" font-family="ui-sans-serif,-apple-system,sans-serif" font-size="20" font-weight="600" fill="#64748B">来自知乎热榜 · 2026年6月3日</text>
  <text x="412" y="63" text-anchor="middle" font-family="ui-sans-serif,-apple-system,sans-serif" font-size="17" fill="#94A3B8">数据来源：知乎 & opencli</text>
</g>
<g transform="translate(100, 680)">
  <rect x="0" y="0" width="180" height="40" rx="20" fill="#E8F5D8" stroke="#76B900" stroke-width="1.5"/>
  <text x="90" y="27" text-anchor="middle" font-family="ui-sans-serif,-apple-system,sans-serif" font-size="17" font-weight="700" fill="#76B900">🏷️ 英伟达</text>
</g>


</svg>