<svg xmlns="http://www.w3.org/2000/svg" viewBox="0 0 1024 1024">
<defs><linearGradient id="bgG" x1="0%" y1="0%" x2="100%" y2="100%"><stop offset="0%" stop-color="#FAF7F2"/><stop offset="100%" stop-color="#F3F0E8"/></linearGradient></defs>
<rect width="1024" height="1024" fill="url(#bgG)"/>
<circle cx="81.92" cy="81.92" r="61.44" fill="#E0F2FE" opacity="0.4"/><circle cx="942.08" cy="122.88" r="51.2" fill="#EDE9FE" opacity="0.4"/><circle cx="81.92" cy="901.12" r="71.68" fill="#FFEDD5" opacity="0.3"/><circle cx="942.08" cy="798.72" r="81.92" fill="#D1FAE5" opacity="0.3"/>

<filter id="shadow" x="-5%" y="-5%" width="110%" height="110%">
  <feDropShadow dx="0" dy="4" stdDeviation="8" flood-color="#00000010"/>
</filter>
<filter id="shadow2" x="-5%" y="-5%" width="110%" height="110%">
  <feDropShadow dx="0" dy="2" stdDeviation="4" flood-color="#00000008"/>
</filter>
<rect x="62" y="80" width="900" height="864" rx="28" fill="#FFFFFF" filter="url(#shadow)"/>
<g transform="translate(475, 110)"><rect x="0" y="0" width="52" height="52" rx="12" fill="#0066FF"/><text x="26" y="34" text-anchor="middle" font-family="ui-sans-serif,-apple-system,sans-serif" font-size="20" font-weight="900" fill="#FFF">知</text></g>
<text x="512" y="200" text-anchor="middle" font-family="ui-sans-serif,-apple-system,sans-serif" font-size="64" font-weight="900" fill="#1E293B">知乎AI热榜</text>
<text x="512" y="260" text-anchor="middle" font-family="ui-sans-serif,-apple-system,sans-serif" font-size="30" fill="#64748B">今日热门 TOP 5 🔥</text>
<text x="512" y="300" text-anchor="middle" font-family="ui-sans-serif,-apple-system,sans-serif" font-size="20" fill="#94A3B8">2026.06.03</text>

<g transform="translate(120, 360)">
  <rect x="0" y="0" width="784" height="56" rx="14" fill="#FFFFFF" filter="url(#shadow2)"/>
  <text x="35" y="37" font-family="ui-sans-serif,-apple-system,sans-serif" font-size="24">🥇</text>
  <text x="120" y="37" font-family="ui-sans-serif,-apple-system,sans-serif" font-size="20" font-weight="600" fill="#1E293B">NVIDIA RTX Spark</text>
  <text x="680" y="37" text-anchor="end" font-family="ui-sans-serif,-apple-system,sans-serif" font-size="16" fill="#76B900" font-weight="600">124万热度</text>
</g>
<g transform="translate(120, 432)">
  <rect x="0" y="0" width="784" height="56" rx="14" fill="#FFFFFF" filter="url(#shadow2)"/>
  <text x="35" y="37" font-family="ui-sans-serif,-apple-system,sans-serif" font-size="24">🥈</text>
  <text x="120" y="37" font-family="ui-sans-serif,-apple-system,sans-serif" font-size="20" font-weight="600" fill="#1E293B">宇树科技IPO过会</text>
  <text x="680" y="37" text-anchor="end" font-family="ui-sans-serif,-apple-system,sans-serif" font-size="16" fill="#FF6B35" font-weight="600">75万热度</text>
</g>
<g transform="translate(120, 504)">
  <rect x="0" y="0" width="784" height="56" rx="14" fill="#FFFFFF" filter="url(#shadow2)"/>
  <text x="35" y="37" font-family="ui-sans-serif,-apple-system,sans-serif" font-size="24">🥉</text>
  <text x="120" y="37" font-family="ui-sans-serif,-apple-system,sans-serif" font-size="20" font-weight="600" fill="#1E293B">Anthropic抢跑IPO</text>
  <text x="680" y="37" text-anchor="end" font-family="ui-sans-serif,-apple-system,sans-serif" font-size="16" fill="#CC4C00" font-weight="600">AI圈热议</text>
</g>
<g transform="translate(120, 576)">
  <rect x="0" y="0" width="784" height="56" rx="14" fill="#FFFFFF" filter="url(#shadow2)"/>
  <text x="35" y="37" font-family="ui-sans-serif,-apple-system,sans-serif" font-size="24">🏅</text>
  <text x="120" y="37" font-family="ui-sans-serif,-apple-system,sans-serif" font-size="20" font-weight="600" fill="#1E293B">DeepSeek-V4降价97.5%</text>
  <text x="680" y="37" text-anchor="end" font-family="ui-sans-serif,-apple-system,sans-serif" font-size="16" fill="#4F6EF7" font-weight="600">大模型价格战</text>
</g>
<g transform="translate(120, 648)">
  <rect x="0" y="0" width="784" height="56" rx="14" fill="#FFFFFF" filter="url(#shadow2)"/>
  <text x="35" y="37" font-family="ui-sans-serif,-apple-system,sans-serif" font-size="24">🏅</text>
  <text x="120" y="37" font-family="ui-sans-serif,-apple-system,sans-serif" font-size="20" font-weight="600" fill="#1E293B">字节AI大地震</text>
  <text x="680" y="37" text-anchor="end" font-family="ui-sans-serif,-apple-system,sans-serif" font-size="16" fill="#FF6B6B" font-weight="600">豆包付费/大将离职</text>
</g>
<text x="512" y="870" text-anchor="middle" font-family="ui-sans-serif,-apple-system,sans-serif" font-size="16" fill="#94A3B8">数据 via opencli zhihu + tophub.today</text>

</svg>