<svg xmlns="http://www.w3.org/2000/svg" viewBox="0 0 1792 1024">
<defs><linearGradient id="bgG" x1="0%" y1="0%" x2="100%" y2="100%"><stop offset="0%" stop-color="#FAF7F2"/><stop offset="100%" stop-color="#F3F0E8"/></linearGradient></defs>
<rect width="1792" height="1024" fill="url(#bgG)"/>
<circle cx="143.36" cy="81.92" r="61.44" fill="#E0F2FE" opacity="0.4"/><circle cx="1648.64" cy="122.88" r="51.2" fill="#EDE9FE" opacity="0.4"/><circle cx="143.36" cy="901.12" r="71.68" fill="#FFEDD5" opacity="0.3"/><circle cx="1648.64" cy="798.72" r="81.92" fill="#D1FAE5" opacity="0.3"/>

<filter id="shadow" x="-5%" y="-5%" width="110%" height="110%">
  <feDropShadow dx="0" dy="4" stdDeviation="8" flood-color="#00000010"/>
</filter>
<filter id="shadow2" x="-5%" y="-5%" width="110%" height="110%">
  <feDropShadow dx="0" dy="2" stdDeviation="4" flood-color="#00000008"/>
</filter>
<rect x="100" y="50" width="1592" height="888" rx="28" fill="#FFFFFF" filter="url(#shadow)"/>
<g transform="translate(870, 55)"><rect x="0" y="0" width="52" height="52" rx="12" fill="#0066FF"/><text x="26" y="34" text-anchor="middle" font-family="ui-sans-serif,-apple-system,sans-serif" font-size="20" font-weight="900" fill="#FFF">知</text></g>
<text x="896" y="160" text-anchor="middle" font-family="ui-sans-serif,-apple-system,sans-serif" font-size="52" font-weight="900" fill="#1E293B">知乎AI热榜 TOP5 🔥</text>
<text x="896" y="200" text-anchor="middle" font-family="ui-sans-serif,-apple-system,sans-serif" font-size="20" fill="#64748B">2026.06.03</text>

<g transform="translate(100, 230)">
  <rect x="0" y="0" width="1592" height="88" rx="16" fill="#FFFFFF" filter="url(#shadow2)"/>
  <g transform="translate(20, 18)"><rect x="0" y="0" width="52" height="52" rx="12" fill="#76B900"/><text x="26" y="34" text-anchor="middle" font-family="ui-sans-serif,-apple-system,sans-serif" font-size="22" font-weight="900" fill="#FFF">N</text></g>
  <text x="90" y="55" font-family="ui-sans-serif,-apple-system,sans-serif" font-size="30">🥇</text>
  <text x="170" y="55" font-family="ui-sans-serif,-apple-system,sans-serif" font-size="26" font-weight="700" fill="#1E293B">NVIDIA RTX Spark</text>
  <text x="620" y="55" font-family="ui-sans-serif,-apple-system,sans-serif" font-size="21" fill="#76B900" font-weight="600">124万热度</text>
  <rect x="780" y="24" width="160" height="40" rx="20" fill="#E8F5D8" stroke="#76B900" stroke-width="1"/>
  <text x="860" y="51" text-anchor="middle" font-family="ui-sans-serif,-apple-system,sans-serif" font-size="16" font-weight="600" fill="#76B900">AI PC芯片</text>
</g>
<g transform="translate(100, 345)">
  <rect x="0" y="0" width="1592" height="88" rx="16" fill="#FFFFFF" filter="url(#shadow2)"/>
  <g transform="translate(20, 18)"><rect x="0" y="0" width="52" height="52" rx="12" fill="#FF6B35"/><text x="26" y="35" text-anchor="middle" font-family="ui-sans-serif,-apple-system,sans-serif" font-size="14" font-weight="900" fill="#FFF">宇树</text></g>
  <text x="90" y="55" font-family="ui-sans-serif,-apple-system,sans-serif" font-size="30">🥈</text>
  <text x="170" y="55" font-family="ui-sans-serif,-apple-system,sans-serif" font-size="26" font-weight="700" fill="#1E293B">宇树科技IPO过会</text>
  <text x="620" y="55" font-family="ui-sans-serif,-apple-system,sans-serif" font-size="21" fill="#FF6B35" font-weight="600">75万热度</text>
  <rect x="780" y="24" width="160" height="40" rx="20" fill="#FFE8DC" stroke="#FF6B35" stroke-width="1"/>
  <text x="860" y="51" text-anchor="middle" font-family="ui-sans-serif,-apple-system,sans-serif" font-size="16" font-weight="600" fill="#FF6B35">人形机器人</text>
</g>
<g transform="translate(100, 460)">
  <rect x="0" y="0" width="1592" height="88" rx="16" fill="#FFFFFF" filter="url(#shadow2)"/>
  <g transform="translate(20, 18)"><rect x="0" y="0" width="52" height="52" rx="12" fill="#CC4C00"/><text x="26" y="34" text-anchor="middle" font-family="ui-sans-serif,-apple-system,sans-serif" font-size="26" font-weight="900" fill="#FFF">A</text></g>
  <text x="90" y="55" font-family="ui-sans-serif,-apple-system,sans-serif" font-size="30">🥉</text>
  <text x="170" y="55" font-family="ui-sans-serif,-apple-system,sans-serif" font-size="26" font-weight="700" fill="#1E293B">Anthropic抢跑IPO</text>
  <text x="620" y="55" font-family="ui-sans-serif,-apple-system,sans-serif" font-size="21" fill="#CC4C00" font-weight="600">AI圈热议</text>
  <rect x="780" y="24" width="160" height="40" rx="20" fill="#FFE4CC" stroke="#CC4C00" stroke-width="1"/>
  <text x="860" y="51" text-anchor="middle" font-family="ui-sans-serif,-apple-system,sans-serif" font-size="16" font-weight="600" fill="#CC4C00">估值万亿美元</text>
</g>
<g transform="translate(100, 575)">
  <rect x="0" y="0" width="1592" height="88" rx="16" fill="#FFFFFF" filter="url(#shadow2)"/>
  <g transform="translate(20, 18)"><rect x="0" y="0" width="52" height="52" rx="12" fill="#4F6EF7"/><text x="26" y="35" text-anchor="middle" font-family="ui-sans-serif,-apple-system,sans-serif" font-size="15" font-weight="900" fill="#FFF">DS</text></g>
  <text x="90" y="55" font-family="ui-sans-serif,-apple-system,sans-serif" font-size="30">🏅</text>
  <text x="170" y="55" font-family="ui-sans-serif,-apple-system,sans-serif" font-size="26" font-weight="700" fill="#1E293B">DeepSeek-V4降价97.5%</text>
  <text x="620" y="55" font-family="ui-sans-serif,-apple-system,sans-serif" font-size="21" fill="#4F6EF7" font-weight="600">媒体刷屏</text>
  <rect x="780" y="24" width="160" height="40" rx="20" fill="#DEE3FF" stroke="#4F6EF7" stroke-width="1"/>
  <text x="860" y="51" text-anchor="middle" font-family="ui-sans-serif,-apple-system,sans-serif" font-size="16" font-weight="600" fill="#4F6EF7">大模型价格战</text>
</g>
<g transform="translate(100, 690)">
  <rect x="0" y="0" width="1592" height="88" rx="16" fill="#FFFFFF" filter="url(#shadow2)"/>
  <g transform="translate(20, 18)"><rect x="0" y="0" width="52" height="52" rx="12" fill="#FF6B6B"/><text x="26" y="34" text-anchor="middle" font-family="ui-sans-serif,-apple-system,sans-serif" font-size="20" font-weight="900" fill="#FFF">B</text></g>
  <text x="90" y="55" font-family="ui-sans-serif,-apple-system,sans-serif" font-size="30">🏅</text>
  <text x="170" y="55" font-family="ui-sans-serif,-apple-system,sans-serif" font-size="26" font-weight="700" fill="#1E293B">字节AI大地震</text>
  <text x="620" y="55" font-family="ui-sans-serif,-apple-system,sans-serif" font-size="21" fill="#FF6B6B" font-weight="600">36kr独家</text>
  <rect x="780" y="24" width="160" height="40" rx="20" fill="#FFE0E0" stroke="#FF6B6B" stroke-width="1"/>
  <text x="860" y="51" text-anchor="middle" font-family="ui-sans-serif,-apple-system,sans-serif" font-size="16" font-weight="600" fill="#FF6B6B">豆包付费</text>
</g>
<text x="896" y="920" text-anchor="middle" font-family="ui-sans-serif,-apple-system,sans-serif" font-size="18" fill="#94A3B8">数据 via opencli zhihu + tophub.today | 你还刷到了什么？评论区说说 👇</text>

</svg>