<?xml version="1.0" encoding="UTF-8"?>
<svg xmlns="http://www.w3.org/2000/svg" width="800" height="800" viewBox="0 0 800 800">
<defs>
  <linearGradient id="g1" x1="0%" y1="0%" x2="100%" y2="100%">
    <stop offset="0%" stop-color="#7C3AED" stop-opacity=".15"/>
    <stop offset="50%" stop-color="#0891B2" stop-opacity=".08"/>
    <stop offset="100%" stop-color="#6366F1" stop-opacity=".15"/>
  </linearGradient>
  <linearGradient id="g2" x1="0%" y1="100%" x2="100%" y2="0%">
    <stop offset="0%" stop-color="#7C3AED" stop-opacity=".1"/>
    <stop offset="100%" stop-color="#2563EB" stop-opacity=".05"/>
  </linearGradient>
  <linearGradient id="accentBar" x1="0" y1="0" x2="1" y2="0">
    <stop offset="0%" stop-color="#7C3AED"/>
    <stop offset="50%" stop-color="#0891B2"/>
    <stop offset="100%" stop-color="#6366F1"/>
  </linearGradient>
  <linearGradient id="accentGold" x1="0" y1="0" x2="1" y2="0">
    <stop offset="0%" stop-color="#F59E0B"/>
    <stop offset="100%" stop-color="#D97706"/>
  </linearGradient>
  <filter id="glow" x="-50%" y="-50%" width="200%" height="200%">
    <feGaussianBlur stdDeviation="6" result="blur"/>
    <feMerge><feMergeNode in="blur"/><feMergeNode in="SourceGraphic"/></feMerge>
  </filter>
  <filter id="shadow" x="-10%" y="-10%" width="130%" height="130%">
    <feDropShadow dx="0" dy="4" stdDeviation="8" flood-color="#000" flood-opacity=".3"/>
  </filter>
</defs>
<rect width="800" height="800" fill="#0F0F23" rx="24"/>
<rect width="800" height="800" fill="url(#g1)"/>
<rect x="30" y="20" width="740" height="40" rx="20" fill="url(#accentBar)" opacity=".15"/>
<text x="400" y="46" text-anchor="middle" fill="url(#accentBar)" font-size="16" font-weight="800" font-family="system-ui,-apple-system,sans-serif">OpenRouter Coding Agents TOP10</text><rect x="40" y="85" width="720" height="125" rx="16" fill="#1E1E3A" opacity=".4" filter="url(#shadow)"/>
<rect x="40" y="85" width="720" height="125" rx="16" fill="none" stroke="#7C3AED" stroke-width="1" opacity=".2"/><rect x="48" y="97" width="28" height="20" rx="6" fill="#7C3AED" opacity=".2"/>
<text x="62" y="111" text-anchor="middle" fill="#7C3AED" font-size="12" font-weight="700" font-family="system-ui,-apple-system,sans-serif">6</text>
<circle cx="84" cy="107" r="18" fill="#7C3AED" filter="url(#shadow)"/>
<text x="84" y="114.0" text-anchor="middle" fill="white" font-size="20" font-weight="700" font-family="system-ui,-apple-system,sans-serif">R</text>
<text x="114" y="105" fill="#F1F5F9" font-size="15" font-weight="700" font-family="system-ui,-apple-system,sans-serif">Roo Code</text>
<text x="114" y="123" fill="#7C3AED" font-size="12" font-weight="600" font-family="system-ui,-apple-system,sans-serif">20B tokens</text>
<text x="52" y="145" fill="#94A3B8" font-size="11" font-family="system-ui,-apple-system,sans-serif">VS Code 插件，给你一支专业 Agent 团队。架构师/编码/调试/审查各司其职。</text>
<line x1="52" y1="173" x2="748" y2="173" stroke="#1E293B" stroke-width="1"/><rect x="40" y="225" width="720" height="125" rx="16" fill="#1E1E3A" opacity=".4" filter="url(#shadow)"/>
<rect x="40" y="225" width="720" height="125" rx="16" fill="none" stroke="#2563EB" stroke-width="1" opacity=".2"/><rect x="48" y="237" width="28" height="20" rx="6" fill="#2563EB" opacity=".2"/>
<text x="62" y="251" text-anchor="middle" fill="#2563EB" font-size="12" font-weight="700" font-family="system-ui,-apple-system,sans-serif">7</text>
<circle cx="84" cy="247" r="18" fill="#2563EB" filter="url(#shadow)"/>
<text x="84" y="254.0" text-anchor="middle" fill="white" font-size="20" font-weight="700" font-family="system-ui,-apple-system,sans-serif">C</text>
<text x="114" y="245" fill="#F1F5F9" font-size="15" font-weight="700" font-family="system-ui,-apple-system,sans-serif">Cline</text>
<text x="114" y="263" fill="#2563EB" font-size="12" font-weight="600" font-family="system-ui,-apple-system,sans-serif">19.1B tokens</text>
<text x="52" y="285" fill="#94A3B8" font-size="11" font-family="system-ui,-apple-system,sans-serif">IDE 里的自主 Agent。翻代码库、改文件、跑终端、浏览器自动化。</text>
<line x1="52" y1="313" x2="748" y2="313" stroke="#1E293B" stroke-width="1"/><rect x="40" y="365" width="720" height="125" rx="16" fill="#1E1E3A" opacity=".4" filter="url(#shadow)"/>
<rect x="40" y="365" width="720" height="125" rx="16" fill="none" stroke="#F59E0B" stroke-width="1" opacity=".2"/><rect x="48" y="377" width="28" height="20" rx="6" fill="#F59E0B" opacity=".2"/>
<text x="62" y="391" text-anchor="middle" fill="#F59E0B" font-size="12" font-weight="700" font-family="system-ui,-apple-system,sans-serif">8</text>
<circle cx="84" cy="387" r="18" fill="#F59E0B" filter="url(#shadow)"/>
<text x="84" y="394.0" text-anchor="middle" fill="white" font-size="20" font-weight="700" font-family="system-ui,-apple-system,sans-serif">L</text>
<text x="114" y="385" fill="#F1F5F9" font-size="15" font-weight="700" font-family="system-ui,-apple-system,sans-serif">Lemonade</text>
<text x="114" y="403" fill="#F59E0B" font-size="12" font-weight="600" font-family="system-ui,-apple-system,sans-serif">12.9B tokens</text>
<text x="52" y="425" fill="#94A3B8" font-size="11" font-family="system-ui,-apple-system,sans-serif">专做 Roblox 游戏的 AI 工具。很垂直的方向。</text>
<line x1="52" y1="453" x2="748" y2="453" stroke="#1E293B" stroke-width="1"/><circle cx="700" cy="80" r="90" fill="#7C3AED" opacity=".04"/>
<circle cx="100" cy="700" r="80" fill="#F59E0B" opacity=".04"/>
</svg>